0
SECTION
2
HEADER
9
$INSUNITS
70
4
9
$ACADVER
1
AC1014
9
$HANDSEED
5
FFFF
0
ENDSEC
0
SECTION
2
TABLES
0
TABLE
2
VPORT
5
8
100
AcDbSymbolTable
0
ENDTAB
0
TABLE
2
LTYPE
5
5
100
AcDbSymbolTable
0
LTYPE
5
14
100
AcDbSymbolTableRecord
100
AcDbLinetypeTableRecord
2
BYBLOCK
70
0
0
LTYPE
5
15
100
AcDbSymbolTableRecord
100
AcDbLinetypeTableRecord
2
BYLAYER
70
0
0
ENDTAB
0
TABLE
2
LAYER
5
2
100
AcDbSymbolTable
70
2
0
LAYER
5
50
100
AcDbSymbolTableRecord
100
AcDbLayerTableRecord
2
0
70
0
6
CONTINUOUS
0
ENDTAB
0
TABLE
2
STYLE
5
3
100
AcDbSymbolTable
70
1
0
STYLE
5
11
100
AcDbSymbolTableRecord
100
AcDbTextStyleTableRecord
2
STANDARD
70
0
0
ENDTAB
0
TABLE
2
VIEW
5
6
100
AcDbSymbolTable
70
0
0
ENDTAB
0
TABLE
2
UCS
5
7
100
AcDbSymbolTable
70
0
0
ENDTAB
0
TABLE
2
APPID
5
9
100
AcDbSymbolTable
70
2
0
APPID
5
12
100
AcDbSymbolTableRecord
100
AcDbRegAppTableRecord
2
ACAD
70
0
0
ENDTAB
0
TABLE
2
DIMSTYLE
5
A
100
AcDbSymbolTable
70
1
0
ENDTAB
0
TABLE
2
BLOCK_RECORD
5
1
100
AcDbSymbolTable
70
1
0
BLOCK_RECORD
5
1F
100
AcDbSymbolTableRecord
100
AcDbBlockTableRecord
2
*MODEL_SPACE
0
BLOCK_RECORD
5
1B
100
AcDbSymbolTableRecord
100
AcDbBlockTableRecord
2
*PAPER_SPACE
0
ENDTAB
0
ENDSEC
0
SECTION
2
BLOCKS
0
BLOCK
5
20
100
AcDbEntity
100
AcDbBlockBegin
2
*MODEL_SPACE
0
ENDBLK
5
21
100
AcDbEntity
100
AcDbBlockEnd
0
BLOCK
5
1C
100
AcDbEntity
100
AcDbBlockBegin
2
*PAPER_SPACE
0
ENDBLK
5
1D
100
AcDbEntity
100
AcDbBlockEnd
0
ENDSEC
0
SECTION
2
ENTITIES
0
LWPOLYLINE
5
100
100
AcDbEntity
8
0
100
AcDbPolyline
90
8
70
1
43
0.0
10
-196.96249999999992
20
-92.249999999999957
42
0.41421356237309503
10
-197.46249999999989
20
-92.749999999999972
10
-197.46249999999989
20
-105.75000000000001
42
0.41421356237309503
10
-196.96249999999992
20
-106.25000000000001
10
-183.96249999999986
20
-106.25000000000001
42
0.41421356237309503
10
-183.46249999999992
20
-105.75000000000001
10
-183.46249999999992
20
-92.749999999999972
42
0.41421356237309503
10
-183.96249999999986
20
-92.249999999999957
0
LWPOLYLINE
5
101
100
AcDbEntity
8
0
100
AcDbPolyline
90
8
70
1
43
0.0
10
-203.59949999999992
20
-92.749999999999972
42
0.41421356237309503
10
-204.09949999999992
20
-92.249999999999957
10
-210.09949999999989
20
-92.249999999999957
42
0.41421356237309503
10
-210.59949999999992
20
-92.749999999999972
10
-210.59949999999992
20
-106.75
42
0.41421356237309503
10
-210.09949999999989
20
-107.25000000000001
10
-204.09949999999992
20
-107.25000000000001
42
0.41421356237309503
10
-203.59949999999992
20
-106.75
0
LWPOLYLINE
5
102
100
AcDbEntity
8
0
100
AcDbPolyline
90
8
70
1
43
0.0
10
-193.4874999999999
20
-68.149999999999977
42
0.41421356237309503
10
-192.98749999999987
20
-67.649999999999977
10
-192.98749999999987
20
-54.649999999999991
42
0.41421356237309503
10
-193.4874999999999
20
-54.149999999999991
10
-206.4874999999999
20
-54.149999999999991
42
0.41421356237309503
10
-206.9874999999999
20
-54.649999999999991
10
-206.9874999999999
20
-67.649999999999977
42
0.41421356237309503
10
-206.4874999999999
20
-68.149999999999977
0
LWPOLYLINE
5
103
100
AcDbEntity
8
0
100
AcDbPolyline
90
8
70
1
43
0.0
10
-130.78749999999991
20
-67.649999999999977
42
0.41421356237309503
10
-130.28749999999991
20
-68.149999999999977
10
-117.28749999999994
20
-68.149999999999977
42
0.41421356237309503
10
-116.78749999999994
20
-67.649999999999977
10
-116.78749999999994
20
-54.649999999999991
42
0.41421356237309503
10
-117.28749999999994
20
-54.149999999999991
10
-130.28749999999991
20
-54.149999999999991
42
0.41421356237309503
10
-130.78749999999991
20
-54.649999999999991
0
LWPOLYLINE
5
104
100
AcDbEntity
8
0
100
AcDbPolyline
90
8
70
1
43
0.0
10
-245.08749999999992
20
-35.599999999999987
10
-245.08749999999992
20
-48.599999999999994
42
0.41421356237309503
10
-244.58749999999992
20
-49.099999999999994
10
-231.58749999999992
20
-49.099999999999994
42
0.41421356237309503
10
-231.08749999999992
20
-48.599999999999994
10
-231.08749999999992
20
-35.599999999999987
42
0.41421356237309503
10
-231.58749999999992
20
-35.099999999999987
10
-244.58749999999992
20
-35.099999999999987
42
0.41421356237309503
0
LWPOLYLINE
5
105
100
AcDbEntity
8
0
100
AcDbPolyline
90
8
70
1
43
0.0
10
-97.737499999999898
20
-86.699999999999989
10
-97.737499999999898
20
-73.699999999999974
42
0.41421356237309503
10
-98.237499999999898
20
-73.199999999999974
10
-111.2374999999999
20
-73.199999999999974
42
0.41421356237309503
10
-111.73749999999991
20
-73.699999999999974
10
-111.73749999999991
20
-86.699999999999989
42
0.41421356237309503
10
-111.2374999999999
20
-87.199999999999989
10
-98.237499999999898
20
-87.199999999999989
42
0.41421356237309503
0
LWPOLYLINE
5
106
100
AcDbEntity
8
0
100
AcDbPolyline
90
8
70
1
43
0.0
10
-250.13749999999987
20
-73.699999999999974
42
0.41421356237309503
10
-250.63749999999987
20
-73.199999999999974
10
-263.63749999999987
20
-73.199999999999974
42
0.41421356237309503
10
-264.13749999999987
20
-73.699999999999974
10
-264.13749999999987
20
-86.699999999999989
42
0.41421356237309503
10
-263.63749999999987
20
-87.199999999999989
10
-250.63749999999987
20
-87.199999999999989
42
0.41421356237309503
10
-250.13749999999987
20
-86.699999999999989
0
LWPOLYLINE
5
107
100
AcDbEntity
8
0
100
AcDbPolyline
90
8
70
1
43
0.0
10
-250.13749999999987
20
-35.599999999999987
42
0.41421356237309503
10
-250.63749999999987
20
-35.099999999999987
10
-263.63749999999987
20
-35.099999999999987
42
0.41421356237309503
10
-264.13749999999987
20
-35.599999999999987
10
-264.13749999999987
20
-48.599999999999994
42
0.41421356237309503
10
-263.63749999999987
20
-49.099999999999994
10
-250.63749999999987
20
-49.099999999999994
42
0.41421356237309503
10
-250.13749999999987
20
-48.599999999999994
0
LWPOLYLINE
5
108
100
AcDbEntity
8
0
100
AcDbPolyline
90
8
70
1
43
0.0
10
-269.18749999999989
20
-86.699999999999989
10
-269.18749999999989
20
-73.699999999999974
42
0.41421356237309503
10
-269.68749999999989
20
-73.199999999999974
10
-282.68749999999989
20
-73.199999999999974
42
0.41421356237309503
10
-283.18749999999989
20
-73.699999999999974
10
-283.18749999999989
20
-86.699999999999989
42
0.41421356237309503
10
-282.68749999999989
20
-87.199999999999989
10
-269.68749999999989
20
-87.199999999999989
42
0.41421356237309503
0
LWPOLYLINE
5
109
100
AcDbEntity
8
0
100
AcDbPolyline
90
8
70
1
43
0.0
10
-206.4874999999999
20
-87.199999999999989
10
-193.4874999999999
20
-87.199999999999989
42
0.41421356237309503
10
-192.98749999999987
20
-86.699999999999989
10
-192.98749999999987
20
-73.699999999999974
42
0.41421356237309503
10
-193.4874999999999
20
-73.199999999999974
10
-206.4874999999999
20
-73.199999999999974
42
0.41421356237309503
10
-206.9874999999999
20
-73.699999999999974
10
-206.9874999999999
20
-86.699999999999989
42
0.41421356237309503
0
LWPOLYLINE
5
110
100
AcDbEntity
8
0
100
AcDbPolyline
90
8
70
1
43
0.0
10
-155.3874999999999
20
-73.199999999999974
10
-168.3874999999999
20
-73.199999999999974
42
0.41421356237309503
10
-168.8874999999999
20
-73.699999999999974
10
-168.8874999999999
20
-86.699999999999989
42
0.41421356237309503
10
-168.3874999999999
20
-87.199999999999989
10
-155.3874999999999
20
-87.199999999999989
42
0.41421356237309503
10
-154.88749999999987
20
-86.699999999999989
10
-154.88749999999987
20
-73.699999999999974
42
0.41421356237309503
0
LWPOLYLINE
5
111
100
AcDbEntity
8
0
100
AcDbPolyline
90
8
70
1
43
0.0
10
-231.08749999999992
20
-86.699999999999989
10
-231.08749999999992
20
-73.699999999999974
42
0.41421356237309503
10
-231.58749999999992
20
-73.199999999999974
10
-244.58749999999992
20
-73.199999999999974
42
0.41421356237309503
10
-245.08749999999992
20
-73.699999999999974
10
-245.08749999999992
20
-86.699999999999989
42
0.41421356237309503
10
-244.58749999999992
20
-87.199999999999989
10
-231.58749999999992
20
-87.199999999999989
42
0.41421356237309503
0
LWPOLYLINE
5
112
100
AcDbEntity
8
0
100
AcDbPolyline
90
8
70
1
43
0.0
10
-135.83749999999986
20
-73.699999999999974
42
0.41421356237309503
10
-136.33749999999989
20
-73.199999999999974
10
-149.33749999999989
20
-73.199999999999974
42
0.41421356237309503
10
-149.83749999999989
20
-73.699999999999974
10
-149.83749999999989
20
-86.699999999999989
42
0.41421356237309503
10
-149.33749999999989
20
-87.199999999999989
10
-136.33749999999989
20
-87.199999999999989
42
0.41421356237309503
10
-135.83749999999986
20
-86.699999999999989
0
LWPOLYLINE
5
113
100
AcDbEntity
8
0
100
AcDbPolyline
90
8
70
1
43
0.0
10
-173.93749999999989
20
-73.699999999999974
42
0.41421356237309503
10
-174.43749999999989
20
-73.199999999999974
10
-187.43749999999991
20
-73.199999999999974
42
0.41421356237309503
10
-187.93749999999989
20
-73.699999999999974
10
-187.93749999999989
20
-86.699999999999989
42
0.41421356237309503
10
-187.43749999999991
20
-87.199999999999989
10
-174.43749999999989
20
-87.199999999999989
42
0.41421356237309503
10
-173.93749999999989
20
-86.699999999999989
0
LWPOLYLINE
5
114
100
AcDbEntity
8
0
100
AcDbPolyline
90
8
70
1
43
0.0
10
-130.28749999999991
20
-73.199999999999974
42
0.41421356237309503
10
-130.78749999999991
20
-73.699999999999974
10
-130.78749999999991
20
-86.699999999999989
42
0.41421356237309503
10
-130.28749999999991
20
-87.199999999999989
10
-117.28749999999994
20
-87.199999999999989
42
0.41421356237309503
10
-116.78749999999994
20
-86.699999999999989
10
-116.78749999999994
20
-73.699999999999974
42
0.41421356237309503
10
-117.28749999999994
20
-73.199999999999974
0
LWPOLYLINE
5
115
100
AcDbEntity
8
0
100
AcDbPolyline
90
8
70
1
43
0.0
10
-283.18749999999989
20
-48.599999999999994
42
0.41421356237309503
10
-282.68749999999989
20
-49.099999999999994
10
-269.68749999999989
20
-49.099999999999994
42
0.41421356237309503
10
-269.18749999999989
20
-48.599999999999994
10
-269.18749999999989
20
-35.599999999999987
42
0.41421356237309503
10
-269.68749999999989
20
-35.099999999999987
10
-282.68749999999989
20
-35.099999999999987
42
0.41421356237309503
10
-283.18749999999989
20
-35.599999999999987
0
LWPOLYLINE
5
116
100
AcDbEntity
8
0
100
AcDbPolyline
90
8
70
1
43
0.0
10
-142.53749999999991
20
-92.249999999999957
42
0.41421356237309503
10
-143.03749999999991
20
-92.749999999999972
10
-143.03749999999991
20
-105.75000000000001
42
0.41421356237309503
10
-142.53749999999991
20
-106.25000000000001
10
-141.53749999999991
20
-106.25000000000001
42
0.41421356237309503
10
-141.03749999999988
20
-105.75000000000001
10
-141.03749999999988
20
-92.749999999999972
42
0.41421356237309503
10
-141.53749999999991
20
-92.249999999999957
0
LWPOLYLINE
5
117
100
AcDbEntity
8
0
100
AcDbPolyline
90
8
70
1
43
0.0
10
-132.22549999999987
20
-92.749999999999972
42
0.41421356237309503
10
-132.7254999999999
20
-92.249999999999957
10
-138.7254999999999
20
-92.249999999999957
42
0.41421356237309503
10
-139.2254999999999
20
-92.749999999999972
10
-139.2254999999999
20
-106.75
42
0.41421356237309503
10
-138.7254999999999
20
-107.25000000000001
10
-132.7254999999999
20
-107.25000000000001
42
0.41421356237309503
10
-132.22549999999987
20
-106.75
0
LWPOLYLINE
5
118
100
AcDbEntity
8
0
100
AcDbPolyline
90
8
70
1
43
0.0
10
-60.13749999999991
20
-68.149999999999977
42
0.41421356237309503
10
-59.637499999999903
20
-67.649999999999977
10
-59.637499999999903
20
-54.649999999999991
42
0.41421356237309503
10
-60.13749999999991
20
-54.149999999999991
10
-73.137499999999918
20
-54.149999999999991
42
0.41421356237309503
10
-73.637499999999932
20
-54.649999999999991
10
-73.637499999999932
20
-67.649999999999977
42
0.41421356237309503
10
-73.137499999999918
20
-68.149999999999977
0
ARC
5
119
100
AcDbEntity
8
0
100
AcDbCircle
10
-108.84949999999992
20
-92.749999999999972
30
0
40
0.50000000000000711
210
0
220
0
230
1
100
AcDbArc
50
0
51
90
0
LWPOLYLINE
5
120
100
AcDbEntity
8
0
100
AcDbPolyline
90
8
70
1
43
0.0
10
-269.18749999999989
20
-92.749999999999972
42
0.41421356237309503
10
-269.68749999999989
20
-92.249999999999957
10
-282.68749999999989
20
-92.249999999999957
42
0.41421356237309503
10
-283.18749999999989
20
-92.749999999999972
10
-283.18749999999989
20
-105.75000000000001
42
0.41421356237309503
10
-282.68749999999989
20
-106.25000000000001
10
-269.68749999999989
20
-106.25000000000001
42
0.41421356237309503
10
-269.18749999999989
20
-105.75000000000001
0
LWPOLYLINE
5
121
100
AcDbEntity
8
0
100
AcDbPolyline
90
16
70
1
43
0.0
10
-164.41249999999991
20
-92.749999999999972
42
0.41421356237309503
10
-164.91249999999991
20
-92.249999999999957
10
-177.91249999999991
20
-92.249999999999957
42
0.41421356237309503
10
-178.41249999999991
20
-92.749999999999972
10
-178.41249999999991
20
-105.75000000000001
42
0.41421356237309503
10
-177.91249999999991
20
-106.25000000000001
10
-164.91249999999991
20
-106.25000000000001
42
0.41421356237309503
10
-164.41249999999991
20
-105.75000000000001
10
-164.41249999999991
20
-92.749999999999972
42
0.41421356237309503
10
-164.91249999999991
20
-92.249999999999957
10
-177.91249999999991
20
-92.249999999999957
42
0.41421356237309503
10
-178.41249999999991
20
-92.749999999999972
10
-178.41249999999991
20
-105.75000000000001
42
0.41421356237309503
10
-177.91249999999991
20
-106.25000000000001
10
-164.91249999999991
20
-106.25000000000001
42
0.41421356237309503
10
-164.41249999999991
20
-105.75000000000001
0
LWPOLYLINE
5
122
100
AcDbEntity
8
0
100
AcDbPolyline
90
8
70
1
43
0.0
10
-212.03749999999991
20
-48.599999999999994
10
-212.03749999999991
20
-35.599999999999987
42
0.41421356237309503
10
-212.53749999999991
20
-35.099999999999987
10
-225.53749999999991
20
-35.099999999999987
42
0.41421356237309503
10
-226.03749999999991
20
-35.599999999999987
10
-226.03749999999991
20
-48.599999999999994
42
0.41421356237309503
10
-225.53749999999991
20
-49.099999999999994
10
-212.53749999999991
20
-49.099999999999994
42
0.41421356237309503
0
LWPOLYLINE
5
123
100
AcDbEntity
8
0
100
AcDbPolyline
90
8
70
1
43
0.0
10
-226.03749999999991
20
-73.699999999999974
10
-226.03749999999991
20
-86.699999999999989
42
0.41421356237309503
10
-225.53749999999991
20
-87.199999999999989
10
-212.53749999999991
20
-87.199999999999989
42
0.41421356237309503
10
-212.03749999999991
20
-86.699999999999989
10
-212.03749999999991
20
-73.699999999999974
42
0.41421356237309503
10
-212.53749999999991
20
-73.199999999999974
10
-225.53749999999991
20
-73.199999999999974
42
0.41421356237309503
0
LWPOLYLINE
5
124
100
AcDbEntity
8
0
100
AcDbPolyline
90
8
70
1
43
0.0
10
-264.13749999999987
20
-67.649999999999977
42
0.41421356237309503
10
-263.63749999999987
20
-68.149999999999977
10
-250.63749999999987
20
-68.149999999999977
42
0.41421356237309503
10
-250.13749999999987
20
-67.649999999999977
10
-250.13749999999987
20
-54.649999999999991
42
0.41421356237309503
10
-250.63749999999987
20
-54.149999999999991
10
-263.63749999999987
20
-54.149999999999991
42
0.41421356237309503
10
-264.13749999999987
20
-54.649999999999991
0
LWPOLYLINE
5
125
100
AcDbEntity
8
0
100
AcDbPolyline
90
8
70
1
43
0.0
10
-231.58749999999992
20
-68.149999999999977
42
0.41421356237309503
10
-231.08749999999992
20
-67.649999999999977
10
-231.08749999999992
20
-54.649999999999991
42
0.41421356237309503
10
-231.58749999999992
20
-54.149999999999991
10
-244.58749999999992
20
-54.149999999999991
42
0.41421356237309503
10
-245.08749999999992
20
-54.649999999999991
10
-245.08749999999992
20
-67.649999999999977
42
0.41421356237309503
10
-244.58749999999992
20
-68.149999999999977
0
LWPOLYLINE
5
126
100
AcDbEntity
8
0
100
AcDbPolyline
90
8
70
1
43
0.0
10
-174.43749999999989
20
-68.149999999999977
42
0.41421356237309503
10
-173.93749999999989
20
-67.649999999999977
10
-173.93749999999989
20
-54.649999999999991
42
0.41421356237309503
10
-174.43749999999989
20
-54.149999999999991
10
-187.43749999999991
20
-54.149999999999991
42
0.41421356237309503
10
-187.93749999999989
20
-54.649999999999991
10
-187.93749999999989
20
-67.649999999999977
42
0.41421356237309503
10
-187.43749999999991
20
-68.149999999999977
0
LWPOLYLINE
5
127
100
AcDbEntity
8
0
100
AcDbPolyline
90
8
70
1
43
0.0
10
-59.637499999999903
20
-73.699999999999974
42
0.41421356237309503
10
-60.13749999999991
20
-73.199999999999974
10
-73.137499999999918
20
-73.199999999999974
42
0.41421356237309503
10
-73.637499999999932
20
-73.699999999999974
10
-73.637499999999932
20
-86.699999999999989
42
0.41421356237309503
10
-73.137499999999918
20
-87.199999999999989
10
-60.13749999999991
20
-87.199999999999989
42
0.41421356237309503
10
-59.637499999999903
20
-86.699999999999989
0
LWPOLYLINE
5
128
100
AcDbEntity
8
0
100
AcDbPolyline
90
8
70
1
43
0.0
10
-250.13749999999987
20
-92.749999999999972
42
0.41421356237309503
10
-250.63749999999987
20
-92.249999999999957
10
-263.63749999999987
20
-92.249999999999957
42
0.41421356237309503
10
-264.13749999999987
20
-92.749999999999972
10
-264.13749999999987
20
-105.75000000000001
42
0.41421356237309503
10
-263.63749999999987
20
-106.25000000000001
10
-250.63749999999987
20
-106.25000000000001
42
0.41421356237309503
10
-250.13749999999987
20
-105.75000000000001
0
LWPOLYLINE
5
129
100
AcDbEntity
8
0
100
AcDbPolyline
90
8
70
1
43
0.0
10
-269.68749999999989
20
-68.149999999999977
42
0.41421356237309503
10
-269.18749999999989
20
-67.649999999999977
10
-269.18749999999989
20
-54.649999999999991
42
0.41421356237309503
10
-269.68749999999989
20
-54.149999999999991
10
-282.68749999999989
20
-54.149999999999991
42
0.41421356237309503
10
-283.18749999999989
20
-54.649999999999991
10
-283.18749999999989
20
-67.649999999999977
42
0.41421356237309503
10
-282.68749999999989
20
-68.149999999999977
0
ARC
5
130
100
AcDbEntity
8
0
100
AcDbCircle
10
-212.53749999999991
20
-92.749999999999972
30
0
40
0.49999999999997158
210
0
220
0
230
1
100
AcDbArc
50
0
51
90
0
LWPOLYLINE
5
131
100
AcDbEntity
8
0
100
AcDbPolyline
90
8
70
1
43
0.0
10
-236.28749999999991
20
-92.749999999999972
42
0.41421356237309503
10
-236.78749999999991
20
-92.249999999999957
10
-237.78749999999988
20
-92.249999999999957
42
0.41421356237309503
10
-238.28749999999988
20
-92.749999999999972
10
-238.28749999999988
20
-105.75000000000001
42
0.41421356237309503
10
-237.78749999999988
20
-106.25000000000001
10
-236.78749999999991
20
-106.25000000000001
42
0.41421356237309503
10
-236.28749999999991
20
-105.75000000000001
0
LWPOLYLINE
5
132
100
AcDbEntity
8
0
100
AcDbPolyline
90
8
70
1
43
0.0
10
-200.28749999999991
20
-92.249999999999957
10
-201.28749999999991
20
-92.249999999999957
42
0.41421356237309503
10
-201.78749999999994
20
-92.749999999999972
10
-201.78749999999994
20
-105.75000000000001
42
0.41421356237309503
10
-201.28749999999991
20
-106.25000000000001
10
-200.28749999999991
20
-106.25000000000001
42
0.41421356237309503
10
-199.78749999999991
20
-105.75000000000001
10
-199.78749999999991
20
-92.749999999999972
42
0.41421356237309503
0
LWPOLYLINE
5
133
100
AcDbEntity
8
0
100
AcDbPolyline
90
8
70
1
43
0.0
10
-145.3624999999999
20
-92.749999999999972
42
0.41421356237309503
10
-145.8624999999999
20
-92.249999999999957
10
-158.8624999999999
20
-92.249999999999957
42
0.41421356237309503
10
-159.3624999999999
20
-92.749999999999972
10
-159.3624999999999
20
-105.75000000000001
42
0.41421356237309503
10
-158.8624999999999
20
-106.25000000000001
10
-145.8624999999999
20
-106.25000000000001
42
0.41421356237309503
10
-145.3624999999999
20
-105.75000000000001
0
ARC
5
134
100
AcDbEntity
8
0
100
AcDbCircle
10
-233.9754999999999
20
-92.749999999999972
30
0
40
0.50000000000000711
210
0
220
-0
230
1
100
AcDbArc
50
90
51
180
0
LWPOLYLINE
5
135
100
AcDbEntity
8
0
100
AcDbPolyline
90
8
70
1
43
0.0
10
-78.687499999999886
20
-54.649999999999991
42
0.41421356237309503
10
-79.187499999999886
20
-54.149999999999991
10
-92.187499999999886
20
-54.149999999999991
42
0.41421356237309503
10
-92.687499999999901
20
-54.649999999999991
10
-92.687499999999901
20
-67.649999999999977
42
0.41421356237309503
10
-92.187499999999886
20
-68.149999999999977
10
-79.187499999999886
20
-68.149999999999977
42
0.41421356237309503
10
-78.687499999999886
20
-67.649999999999977
0
LWPOLYLINE
5
136
100
AcDbEntity
8
0
100
AcDbPolyline
90
8
70
1
43
0.0
10
-111.2374999999999
20
-35.099999999999987
42
0.41421356237309503
10
-111.73749999999991
20
-35.599999999999987
10
-111.73749999999991
20
-48.599999999999994
42
0.41421356237309503
10
-111.2374999999999
20
-49.099999999999994
10
-98.237499999999898
20
-49.099999999999994
42
0.41421356237309503
10
-97.737499999999898
20
-48.599999999999994
10
-97.737499999999898
20
-35.599999999999987
42
0.41421356237309503
10
-98.237499999999898
20
-35.099999999999987
0
LWPOLYLINE
5
137
100
AcDbEntity
8
0
100
AcDbPolyline
90
8
70
1
43
0.0
10
-92.687499999999901
20
-48.599999999999994
42
0.41421356237309503
10
-92.187499999999886
20
-49.099999999999994
10
-79.187499999999886
20
-49.099999999999994
42
0.41421356237309503
10
-78.687499999999886
20
-48.599999999999994
10
-78.687499999999886
20
-35.599999999999987
42
0.41421356237309503
10
-79.187499999999886
20
-35.099999999999987
10
-92.187499999999886
20
-35.099999999999987
42
0.41421356237309503
10
-92.687499999999901
20
-35.599999999999987
0
LWPOLYLINE
5
138
100
AcDbEntity
8
0
100
AcDbPolyline
90
8
70
1
43
0.0
10
-59.637499999999903
20
-35.599999999999987
42
0.41421356237309503
10
-60.13749999999991
20
-35.099999999999987
10
-73.137499999999918
20
-35.099999999999987
42
0.41421356237309503
10
-73.637499999999932
20
-35.599999999999987
10
-73.637499999999932
20
-48.599999999999994
42
0.41421356237309503
10
-73.137499999999918
20
-49.099999999999994
10
-60.13749999999991
20
-49.099999999999994
42
0.41421356237309503
10
-59.637499999999903
20
-48.599999999999994
0
LWPOLYLINE
5
139
100
AcDbEntity
8
0
100
AcDbPolyline
90
8
70
1
43
0.0
10
-111.2374999999999
20
-68.149999999999977
10
-98.237499999999898
20
-68.149999999999977
42
0.41421356237309503
10
-97.737499999999898
20
-67.649999999999977
10
-97.737499999999898
20
-54.649999999999991
42
0.41421356237309503
10
-98.237499999999898
20
-54.149999999999991
10
-111.2374999999999
20
-54.149999999999991
42
0.41421356237309503
10
-111.73749999999991
20
-54.649999999999991
10
-111.73749999999991
20
-67.649999999999977
42
0.41421356237309503
0
ARC
5
140
100
AcDbEntity
8
0
100
AcDbCircle
10
-212.53749999999991
20
-105.75000000000001
30
0
40
0.50000000000000711
210
0
220
0
230
1
100
AcDbArc
50
-90
51
0
0
LWPOLYLINE
5
141
100
AcDbEntity
8
0
100
AcDbPolyline
90
8
70
1
43
0.0
10
-106.03749999999991
20
-106.25000000000001
10
-105.03749999999994
20
-106.25000000000001
42
0.41421356237309503
10
-104.53749999999992
20
-105.75000000000001
10
-104.53749999999992
20
-92.749999999999972
42
0.41421356237309503
10
-105.03749999999994
20
-92.249999999999957
10
-106.03749999999991
20
-92.249999999999957
42
0.41421356237309503
10
-106.53749999999991
20
-92.749999999999972
10
-106.53749999999991
20
-105.75000000000001
42
0.41421356237309503
0
LWPOLYLINE
5
142
100
AcDbEntity
8
0
100
AcDbPolyline
90
8
70
1
43
0.0
10
-155.3874999999999
20
-35.099999999999987
10
-168.3874999999999
20
-35.099999999999987
42
0.41421356237309503
10
-168.8874999999999
20
-35.599999999999987
10
-168.8874999999999
20
-48.599999999999994
42
0.41421356237309503
10
-168.3874999999999
20
-49.099999999999994
10
-155.3874999999999
20
-49.099999999999994
42
0.41421356237309503
10
-154.88749999999987
20
-48.599999999999994
10
-154.88749999999987
20
-35.599999999999987
42
0.41421356237309503
0
ARC
5
143
100
AcDbEntity
8
0
100
AcDbCircle
10
-233.9754999999999
20
-106.75
30
0
40
0.50000000000000711
210
0
220
0
230
1
100
AcDbArc
50
180
51
270
0
LWPOLYLINE
5
144
100
AcDbEntity
8
0
100
AcDbPolyline
90
8
70
1
43
0.0
10
-149.33749999999989
20
-35.099999999999987
42
0.41421356237309503
10
-149.83749999999989
20
-35.599999999999987
10
-149.83749999999989
20
-48.599999999999994
42
0.41421356237309503
10
-149.33749999999989
20
-49.099999999999994
10
-136.33749999999989
20
-49.099999999999994
42
0.41421356237309503
10
-135.83749999999986
20
-48.599999999999994
10
-135.83749999999986
20
-35.599999999999987
42
0.41421356237309503
10
-136.33749999999989
20
-35.099999999999987
0
LINE
5
145
100
AcDbEntity
8
0
100
AcDbLine
10
-233.9754999999999
20
-92.249999999999957
30
0
11
-212.53749999999991
21
-92.249999999999957
31
0
0
LWPOLYLINE
5
146
100
AcDbEntity
8
0
100
AcDbPolyline
90
8
70
1
43
0.0
10
-92.187499999999886
20
-73.199999999999974
42
0.41421356237309503
10
-92.687499999999901
20
-73.699999999999974
10
-92.687499999999901
20
-86.699999999999989
42
0.41421356237309503
10
-92.187499999999886
20
-87.199999999999989
10
-79.187499999999886
20
-87.199999999999989
42
0.41421356237309503
10
-78.687499999999886
20
-86.699999999999989
10
-78.687499999999886
20
-73.699999999999974
42
0.41421356237309503
10
-79.187499999999886
20
-73.199999999999974
0
LWPOLYLINE
5
147
100
AcDbEntity
8
0
100
AcDbPolyline
90
8
70
1
43
0.0
10
-154.88749999999987
20
-54.649999999999991
42
0.41421356237309503
10
-155.3874999999999
20
-54.149999999999991
10
-168.3874999999999
20
-54.149999999999991
42
0.41421356237309503
10
-168.8874999999999
20
-54.649999999999991
10
-168.8874999999999
20
-67.649999999999977
42
0.41421356237309503
10
-168.3874999999999
20
-68.149999999999977
10
-155.3874999999999
20
-68.149999999999977
42
0.41421356237309503
10
-154.88749999999987
20
-67.649999999999977
0
LINE
5
148
100
AcDbEntity
8
0
100
AcDbLine
10
-114.84949999999991
20
-107.25000000000001
30
0
11
-108.84949999999992
21
-107.25000000000001
31
0
0
ARC
5
149
100
AcDbEntity
8
0
100
AcDbCircle
10
-108.84949999999992
20
-106.75
30
0
40
0.50000000000000711
210
0
220
0
230
1
100
AcDbArc
50
-90
51
0
0
LWPOLYLINE
5
150
100
AcDbEntity
8
0
100
AcDbPolyline
90
8
70
1
43
0.0
10
-225.53749999999991
20
-68.149999999999977
10
-212.53749999999991
20
-68.149999999999977
42
0.41421356237309503
10
-212.03749999999991
20
-67.649999999999977
10
-212.03749999999991
20
-54.649999999999991
42
0.41421356237309503
10
-212.53749999999991
20
-54.149999999999991
10
-225.53749999999991
20
-54.149999999999991
42
0.41421356237309503
10
-226.03749999999991
20
-54.649999999999991
10
-226.03749999999991
20
-67.649999999999977
42
0.41421356237309503
0
ARC
5
151
100
AcDbEntity
8
0
100
AcDbCircle
10
-118.2624999999999
20
-106.75
30
0
40
0.49999999999997158
210
0
220
0
230
1
100
AcDbArc
50
0
51
90
0
LINE
5
152
100
AcDbEntity
8
0
100
AcDbLine
10
-233.9754999999999
20
-107.25000000000001
30
0
11
-227.9754999999999
21
-107.25000000000001
31
0
0
ARC
5
153
100
AcDbEntity
8
0
100
AcDbCircle
10
-130.28749999999991
20
-92.749999999999972
30
0
40
0.50000000000000711
210
0
220
-0
230
1
100
AcDbArc
50
90
51
180
0
LWPOLYLINE
5
154
100
AcDbEntity
8
0
100
AcDbPolyline
90
8
70
1
43
0.0
10
-79.187499999999886
20
-92.249999999999957
10
-92.187499999999886
20
-92.249999999999957
42
0.41421356237309503
10
-92.687499999999901
20
-92.749999999999972
10
-92.687499999999901
20
-105.75000000000001
42
0.41421356237309503
10
-92.187499999999886
20
-106.25000000000001
10
-79.187499999999886
20
-106.25000000000001
42
0.41421356237309503
10
-78.687499999999886
20
-105.75000000000001
10
-78.687499999999886
20
-92.749999999999972
42
0.41421356237309503
0
LWPOLYLINE
5
155
100
AcDbEntity
8
0
100
AcDbPolyline
90
8
70
1
43
0.0
10
-174.43749999999989
20
-35.099999999999987
10
-187.43749999999991
20
-35.099999999999987
42
0.41421356237309503
10
-187.93749999999989
20
-35.599999999999987
10
-187.93749999999989
20
-48.599999999999994
42
0.41421356237309503
10
-187.43749999999991
20
-49.099999999999994
10
-174.43749999999989
20
-49.099999999999994
42
0.41421356237309503
10
-173.93749999999989
20
-48.599999999999994
10
-173.93749999999989
20
-35.599999999999987
42
0.41421356237309503
0
LWPOLYLINE
5
156
100
AcDbEntity
8
0
100
AcDbPolyline
90
8
70
1
43
0.0
10
-73.137499999999918
20
-92.249999999999957
42
0.41421356237309503
10
-73.637499999999932
20
-92.749999999999972
10
-73.637499999999932
20
-105.75000000000001
42
0.41421356237309503
10
-73.137499999999918
20
-106.25000000000001
10
-60.13749999999991
20
-106.25000000000001
42
0.41421356237309503
10
-59.637499999999903
20
-105.75000000000001
10
-59.637499999999903
20
-92.749999999999972
42
0.41421356237309503
10
-60.13749999999991
20
-92.249999999999957
0
LWPOLYLINE
5
157
100
AcDbEntity
8
0
100
AcDbPolyline
90
8
70
1
43
0.0
10
-130.78749999999991
20
-35.599999999999987
10
-130.78749999999991
20
-48.599999999999994
42
0.41421356237309503
10
-130.28749999999991
20
-49.099999999999994
10
-117.28749999999994
20
-49.099999999999994
42
0.41421356237309503
10
-116.78749999999994
20
-48.599999999999994
10
-116.78749999999994
20
-35.599999999999987
42
0.41421356237309503
10
-117.28749999999994
20
-35.099999999999987
10
-130.28749999999991
20
-35.099999999999987
42
0.41421356237309503
0
LWPOLYLINE
5
158
100
AcDbEntity
8
0
100
AcDbPolyline
90
8
70
1
43
0.0
10
-135.83749999999986
20
-54.649999999999991
42
0.41421356237309503
10
-136.33749999999989
20
-54.149999999999991
10
-149.33749999999989
20
-54.149999999999991
42
0.41421356237309503
10
-149.83749999999989
20
-54.649999999999991
10
-149.83749999999989
20
-67.649999999999977
42
0.41421356237309503
10
-149.33749999999989
20
-68.149999999999977
10
-136.33749999999989
20
-68.149999999999977
42
0.41421356237309503
10
-135.83749999999986
20
-67.649999999999977
0
LWPOLYLINE
5
159
100
AcDbEntity
8
0
100
AcDbPolyline
90
8
70
1
43
0.0
10
-192.98749999999987
20
-48.599999999999994
10
-192.98749999999987
20
-35.599999999999987
42
0.41421356237309503
10
-193.4874999999999
20
-35.099999999999987
10
-206.4874999999999
20
-35.099999999999987
42
0.41421356237309503
10
-206.9874999999999
20
-35.599999999999987
10
-206.9874999999999
20
-48.599999999999994
42
0.41421356237309503
10
-206.4874999999999
20
-49.099999999999994
10
-193.4874999999999
20
-49.099999999999994
42
0.41421356237309503
0
LINE
5
160
100
AcDbEntity
8
0
100
AcDbLine
10
-130.28749999999991
20
-92.249999999999957
30
0
11
-108.84949999999992
21
-92.249999999999957
31
0
0
LWPOLYLINE
5
161
100
AcDbEntity
8
0
100
AcDbPolyline
90
13
70
1
43
0.0
10
-44.949999999999974
20
-113.53749999999999
42
0.41421356237309503
10
-43.94999999999996
20
-112.53749999999999
10
-43.94999999999996
20
-104.53749999999999
42
0.41421356237309503
10
-44.949999999999903
20
-103.53749999999999
10
-51.34999999999998
20
-103.53750000000002
42
-0.41421356237309503
10
-52.349999999999994
20
-102.53749999999999
10
-52.349999999999923
20
-5.5999999999999694
42
0.41421356237309587
10
-53.94999999999996
20
-4
10
-298.39999999999992
20
-4
42
0.41421356237309587
10
-299.99999999999994
20
-5.5999999999999694
10
-299.99999999999994
20
-105.53750000000001
42
0.41421356237309503
10
-291.99999999999994
20
-113.53749999999999
10
-53.94999999999996
20
-113.53749999999999
0
LWPOLYLINE
5
162
100
AcDbEntity
8
0
100
AcDbPolyline
90
6
70
1
43
0.0
10
-50.737713240271596
20
-111.03749999999991
10
-47.562286759728565
20
-111.03749999999991
10
-45.974573519457067
20
-108.28749999999992
10
-47.562286759728565
20
-105.53750000000001
10
-50.737713240271596
20
-105.53750000000001
10
-52.325426480543058
20
-108.28749999999992
0
LINE
5
163
100
AcDbEntity
8
0
100
AcDbLine
10
-234.4754999999999
20
-92.749999999999972
30
0
11
-234.4754999999999
21
-106.75
31
0
0
LINE
5
164
100
AcDbEntity
8
0
100
AcDbLine
10
-224.56249999999989
20
-106.25
30
0
11
-212.53749999999991
21
-106.25000000000001
31
0
0
ARC
5
165
100
AcDbEntity
8
0
100
AcDbCircle
10
-130.28749999999991
20
-105.75000000000001
30
0
40
0.50000000000000711
210
0
220
0
230
1
100
AcDbArc
50
180
51
270
0
LINE
5
166
100
AcDbEntity
8
0
100
AcDbLine
10
-117.26249999999993
20
-107.25000000000001
30
0
11
-111.26249999999992
21
-107.25000000000001
31
0
0
LWPOLYLINE
5
167
100
AcDbEntity
8
0
100
AcDbPolyline
90
6
70
1
43
0.0
10
-292.41228675972843
20
-109.28750000000001
10
-290.82457351945698
20
-106.53750000000001
10
-292.41228675972843
20
-103.78749999999999
10
-295.58771324027146
20
-103.78749999999999
10
-297.17542648054291
20
-106.53750000000001
10
-295.58771324027146
20
-109.28750000000001
0
ARC
5
168
100
AcDbEntity
8
0
100
AcDbCircle
10
-117.26249999999993
20
-106.75
30
0
40
0.50000000000000711
210
0
220
0
230
1
100
AcDbArc
50
180
51
270
0
LINE
5
169
100
AcDbEntity
8
0
100
AcDbLine
10
-130.28749999999991
20
-106.25000000000001
30
0
11
-118.2624999999999
21
-106.25
31
0
0
LINE
5
170
100
AcDbEntity
8
0
100
AcDbLine
10
-231.56249999999989
20
-107.25000000000001
30
0
11
-225.56249999999991
21
-107.25000000000001
31
0
0
ARC
5
171
100
AcDbEntity
8
0
100
AcDbCircle
10
-225.56249999999991
20
-106.75
30
0
40
0.50000000000000711
210
0
220
0
230
1
100
AcDbArc
50
-90
51
0
0
ARC
5
172
100
AcDbEntity
8
0
100
AcDbCircle
10
-224.56249999999989
20
-106.75
30
0
40
0.50000000000000711
210
0
220
-0
230
1
100
AcDbArc
50
90
51
180
0
LWPOLYLINE
5
173
100
AcDbEntity
8
0
100
AcDbPolyline
90
6
70
1
43
0.0
10
-61.525426480542897
20
-9.9999999999999432
10
-59.9377132402714
20
-12.749999999999941
10
-56.762286759728369
20
-12.749999999999941
10
-55.174573519456906
20
-9.9999999999999432
10
-56.762286759728369
20
-7.2500000000000275
10
-59.9377132402714
20
-7.2500000000000275
0
LINE
5
174
100
AcDbEntity
8
0
100
AcDbLine
10
-212.03749999999991
20
-105.75000000000001
30
0
11
-212.03749999999991
21
-92.749999999999972
31
0
0
LWPOLYLINE
5
175
100
AcDbEntity
8
0
100
AcDbPolyline
90
8
70
1
43
0.0
10
-294.51249999999987
20
-6.7625000000000597
10
-292.71249999999998
20
-6.7624999999999824
42
-0.41421356237308854
10
-291.11249999999995
20
-8.3624999999999829
10
-291.11249999999973
20
-30.892498332682273
42
-0.41421356237310153
10
-292.71249999999975
20
-32.492498332682295
10
-294.51249999999953
20
-32.492498332682317
42
-0.41421356237309503
10
-296.1124999999995
20
-30.892498332682319
10
-296.11249999999984
20
-8.3625000000000398
42
-0.41421356237309503
0
LWPOLYLINE
5
176
100
AcDbEntity
8
0
100
AcDbPolyline
90
8
70
1
43
0.0
10
-269.68749999999989
20
-25.28749999999998
42
0.41421356237309503
10
-269.18749999999989
20
-24.78749999999998
10
-269.18749999999989
20
-11.787499999999991
42
0.41421356237309503
10
-269.68749999999989
20
-11.287499999999991
10
-282.68749999999989
20
-11.287499999999991
42
0.41421356237309503
10
-283.18749999999989
20
-11.787499999999991
10
-283.18749999999989
20
-24.78749999999998
42
0.41421356237309503
10
-282.68749999999989
20
-25.28749999999998
0
LINE
5
177
100
AcDbEntity
8
0
100
AcDbLine
10
-108.34949999999992
20
-106.75
30
0
11
-108.34949999999992
21
-92.749999999999972
31
0
0
LWPOLYLINE
5
178
100
AcDbEntity
8
0
100
AcDbPolyline
90
6
70
1
43
0.0
10
-250.31164703891403
20
-18.287499999999987
10
-251.89936027918549
20
-15.537500000000081
10
-255.07478675972851
20
-15.537500000000081
10
-256.66249999999997
20
-18.287499999999987
10
-255.07478675972851
20
-21.037499999999987
10
-251.89936027918549
20
-21.037499999999987
0
LINE
5
179
100
AcDbEntity
8
0
100
AcDbLine
10
-130.78749999999991
20
-92.749999999999972
30
0
11
-130.78749999999991
21
-105.75000000000001
31
0
0
LINE
5
180
100
AcDbEntity
8
0
100
AcDbLine
10
-52.349999999999923
20
-5.5999999999999694
30
0
11
-52.349999999999923
21
-9.9999999999999876
31
0
0
ENDSEC
0
SECTION
2
OBJECTS
0
DICTIONARY
5
C
100
AcDbDictionary
3
ACAD_GROUP
350
D
3
ACAD_MLINESTYLE
350
17
0
DICTIONARY
5
D
100
AcDbDictionary
0
DICTIONARY
5
1A
330
C
100
AcDbDictionary
0
DICTIONARY
5
17
100
AcDbDictionary
0
ENDSEC
0
EOF
