0
SECTION
2
HEADER
9
$INSUNITS
70
4
9
$ACADVER
1
AC1014
9
$HANDSEED
5
FFFF
0
ENDSEC
0
SECTION
2
TABLES
0
TABLE
2
VPORT
5
8
100
AcDbSymbolTable
0
ENDTAB
0
TABLE
2
LTYPE
5
5
100
AcDbSymbolTable
0
LTYPE
5
14
100
AcDbSymbolTableRecord
100
AcDbLinetypeTableRecord
2
BYBLOCK
70
0
0
LTYPE
5
15
100
AcDbSymbolTableRecord
100
AcDbLinetypeTableRecord
2
BYLAYER
70
0
0
ENDTAB
0
TABLE
2
LAYER
5
2
100
AcDbSymbolTable
70
2
0
LAYER
5
50
100
AcDbSymbolTableRecord
100
AcDbLayerTableRecord
2
0
70
0
6
CONTINUOUS
0
ENDTAB
0
TABLE
2
STYLE
5
3
100
AcDbSymbolTable
70
1
0
STYLE
5
11
100
AcDbSymbolTableRecord
100
AcDbTextStyleTableRecord
2
STANDARD
70
0
0
ENDTAB
0
TABLE
2
VIEW
5
6
100
AcDbSymbolTable
70
0
0
ENDTAB
0
TABLE
2
UCS
5
7
100
AcDbSymbolTable
70
0
0
ENDTAB
0
TABLE
2
APPID
5
9
100
AcDbSymbolTable
70
2
0
APPID
5
12
100
AcDbSymbolTableRecord
100
AcDbRegAppTableRecord
2
ACAD
70
0
0
ENDTAB
0
TABLE
2
DIMSTYLE
5
A
100
AcDbSymbolTable
70
1
0
ENDTAB
0
TABLE
2
BLOCK_RECORD
5
1
100
AcDbSymbolTable
70
1
0
BLOCK_RECORD
5
1F
100
AcDbSymbolTableRecord
100
AcDbBlockTableRecord
2
*MODEL_SPACE
0
BLOCK_RECORD
5
1B
100
AcDbSymbolTableRecord
100
AcDbBlockTableRecord
2
*PAPER_SPACE
0
ENDTAB
0
ENDSEC
0
SECTION
2
BLOCKS
0
BLOCK
5
20
100
AcDbEntity
100
AcDbBlockBegin
2
*MODEL_SPACE
0
ENDBLK
5
21
100
AcDbEntity
100
AcDbBlockEnd
0
BLOCK
5
1C
100
AcDbEntity
100
AcDbBlockBegin
2
*PAPER_SPACE
0
ENDBLK
5
1D
100
AcDbEntity
100
AcDbBlockEnd
0
ENDSEC
0
SECTION
2
ENTITIES
0
LWPOLYLINE
5
100
100
AcDbEntity
8
0
100
AcDbPolyline
90
13
70
1
43
0.0
10
8
20
0
10
246.05000000000004
20
0
10
255.05000000000001
20
0
42
0.41421356237309498
10
256.05000000000007
20
0.99999999999999978
10
256.05000000000007
20
9.0000000000000018
42
0.41421356237309503
10
255.0500000000001
20
10
10
248.65000000000003
20
9.9999999999999858
42
-0.41421356237309503
10
247.65000000000001
20
11
10
247.65000000000009
20
107.93750000000001
42
0.41421356237309503
10
246.05000000000004
20
109.53749999999999
10
1.600000000000007
20
109.53749999999999
42
0.41421356237309503
10
6.6000000000000007e-15
20
107.93750000000001
10
1.1102230246251565e-15
20
8
42
0.41421356237309503
0
LWPOLYLINE
5
101
100
AcDbEntity
8
0
100
AcDbPolyline
90
4
70
1
43
0.0
10
14.2875
20
104.77500000000001
10
33.337500000000013
20
104.77500000000001
10
33.337500000000013
20
85.724999999999994
10
14.28750000000001
20
85.724999999999994
0
LWPOLYLINE
5
102
100
AcDbEntity
8
0
100
AcDbPolyline
90
20
70
1
43
0.0
10
14.2875
20
6.3624999999999821
10
14.287500000000071
20
79.362500000000026
42
-0.41421356237309503
10
15.887500000000019
20
80.962499999999977
10
241.28749999999999
20
80.962500000000006
42
-0.41421356237309342
10
242.88749999999999
20
79.362500000000011
10
242.88749999999999
20
6.3624999999999821
42
-0.41421356237309503
10
241.28749999999999
20
4.7624999999999877
10
206.38750000000002
20
4.7625000000000526
42
-0.41421356237309503
10
204.78750000000008
20
6.3624999999999829
10
204.78750000000002
20
23.812499999999993
10
195.26250000000002
20
23.812499999999993
10
195.26250000000002
20
6.3624999999999821
42
-0.41421356237309503
10
193.66250000000002
20
4.7624999999999877
10
63.512500000000017
20
4.7624999999999629
42
-0.41421356237309503
10
61.912500000000001
20
6.3624999999999821
10
61.912500000000001
20
23.812499999999993
10
52.387500000000003
20
23.812499999999993
10
52.387499999999974
20
6.3624999999999821
42
-0.41421356237309503
10
50.787499999999987
20
4.7624999999999877
10
15.887500000000019
20
4.7624999999999629
42
-0.41421356237309503
0
LWPOLYLINE
5
103
100
AcDbEntity
8
0
100
AcDbPolyline
90
8
70
1
43
0.0
10
5.487500000000094
20
106.77499999999989
42
0.41421356237309503
10
3.8875000000001139
20
105.17499999999991
10
3.8875000000004141
20
82.645001667317658
42
0.41421356237309503
10
5.4875000000004084
20
81.045001667317663
10
7.2875000000001764
20
81.045001667317678
42
0.41421356237310009
10
8.8875000000002284
20
82.6450016673177
10
8.8874999999999797
20
105.175
42
0.41421356237308998
10
7.2874999999999979
20
106.77500000000001
0
LWPOLYLINE
5
104
100
AcDbEntity
8
0
100
AcDbPolyline
90
13
70
1
43
0.0
10
271.05000000000007
20
0
10
509.10000000000002
20
0
10
518.10000000000002
20
0
42
0.41421356237309498
10
519.10000000000002
20
0.99999999999999978
10
519.10000000000002
20
9
42
0.41421356237309503
10
518.10000000000014
20
10
10
511.7000000000001
20
9.9999999999999858
42
-0.41421356237309503
10
510.70000000000005
20
11
10
510.70000000000022
20
107.93750000000001
42
0.41421356237309503
10
509.10000000000002
20
109.53749999999999
10
264.64999999999998
20
109.53749999999999
42
0.41421356237309503
10
263.05000000000001
20
107.93750000000001
10
263.05000000000001
20
8
42
0.41421356237309503
0
LWPOLYLINE
5
105
100
AcDbEntity
8
0
100
AcDbPolyline
90
4
70
1
43
0.0
10
277.33749999999998
20
104.77500000000001
10
296.38750000000005
20
104.77500000000001
10
296.38750000000005
20
85.724999999999994
10
277.33749999999998
20
85.724999999999994
0
LWPOLYLINE
5
106
100
AcDbEntity
8
0
100
AcDbPolyline
90
20
70
1
43
0.0
10
315.4375
20
6.3624999999999821
10
315.4375
20
23.812499999999993
10
324.96249999999998
20
23.812499999999993
10
324.96249999999998
20
6.3624999999999821
42
0.41421356237309503
10
326.56250000000011
20
4.7624999999999877
10
456.71249999999986
20
4.7624999999999877
42
0.41421356237309503
10
458.31250000000017
20
6.3624999999999821
10
458.31250000000017
20
23.812499999999993
10
467.83749999999998
20
23.812499999999993
10
467.8375000000002
20
6.3624999999999821
42
0.41421356237309503
10
469.43750000000023
20
4.7624999999999877
10
504.33750000000003
20
4.7624999999999877
42
0.41421356237309503
10
505.93750000000011
20
6.3624999999999821
10
505.93750000000011
20
79.362500000000011
42
0.41421356237309342
10
504.33750000000003
20
80.962499999999977
10
278.93750000000011
20
80.962499999999977
42
0.41421356237309503
10
277.33749999999998
20
79.362500000000026
10
277.33749999999998
20
6.3624999999999821
42
0.41421356237309503
10
278.93750000000011
20
4.7624999999999877
10
313.83749999999998
20
4.7624999999999877
42
0.41421356237309503
0
LWPOLYLINE
5
107
100
AcDbEntity
8
0
100
AcDbPolyline
90
8
70
1
43
0.0
10
271.9375
20
105.175
42
0.41421356237308854
10
270.33750000000003
20
106.77500000000001
10
268.53750000000008
20
106.77499999999989
42
0.41421356237309503
10
266.93750000000011
20
105.17499999999991
10
266.93750000000045
20
82.645001667317658
42
0.41421356237309503
10
268.53750000000042
20
81.045001667317663
10
270.3375000000002
20
81.045001667317678
42
0.41421356237310153
10
271.93750000000028
20
82.6450016673177
0
LWPOLYLINE
5
108
100
AcDbEntity
8
0
100
AcDbPolyline
90
49
70
1
43
0.0
10
351.04812598551882
20
149.91848475945994
10
350.89774527081994
20
149.80203371779334
10
350.73413235125963
20
149.70675559279331
10
350.55993262614385
20
149.63265038445991
10
350.37779149477814
20
149.57971809279317
10
350.19035435646794
20
149.54795871779334
10
350.00026661051885
20
149.53737225945991
10
349.81017365623649
20
149.54795871779334
10
349.62272089292634
20
149.57971809279331
10
349.44055371989401
20
149.63265038445991
10
349.26631753644477
20
149.70675559279331
10
349.10265774188468
20
149.80203371779334
10
348.95221973551907
20
149.91848475945994
10
348.8176489166533
20
150.05610871779334
10
348.70159068459304
20
150.21490559279331
10
348.60669043864402
20
150.39487538445991
10
348.53559357811173
20
150.59601809279332
10
348.49094550230143
20
150.81833371779334
10
348.47539161051913
20
151.06182225945992
10
348.49094550230149
20
151.30531080112658
10
348.53559357811173
20
151.5276264261266
10
348.60669043864402
20
151.72876913445992
10
348.70159068459321
20
151.9087389261266
10
348.81764891665335
20
152.06753580112658
10
348.95221973551907
20
152.20515975945995
10
349.10265774188468
20
152.32161080112658
10
349.26631753644477
20
152.4168889261266
10
349.44055371989401
20
152.49099413445992
10
349.62272089292634
20
152.5439264261266
10
349.81017365623637
20
152.57568580112658
10
350.00026661051885
20
152.58627225945992
10
350.19035435646794
20
152.57568580112658
10
350.37779149477814
20
152.5439264261266
10
350.55993262614379
20
152.49099413446001
10
350.73413235125952
20
152.4168889261266
10
350.89774527081977
20
152.32161080112658
10
351.04812598551871
20
152.20515975945995
10
351.18262909605119
20
152.06753580112658
10
351.29860920311137
20
151.9087389261266
10
351.39342090739382
20
151.72876913446001
10
351.46441880959287
20
151.5276264261266
10
351.50895751040304
20
151.30531080112658
10
351.52439161051871
20
151.06182225946
10
351.52439161051871
20
151.06182225946
10
351.50895751040304
20
150.81833371779334
10
351.46441880959287
20
150.59601809279317
10
351.39342090739387
20
150.39487538445991
10
351.29860920311154
20
150.21490559279331
10
351.18262909605141
20
150.05610871779334
0
LWPOLYLINE
5
109
100
AcDbEntity
8
0
100
AcDbPolyline
90
2
70
1
43
0.0
10
345.59989161051885
20
151.06189350945991
10
345.59989161051885
20
150.13689350946004
0
LWPOLYLINE
5
110
100
AcDbEntity
8
0
100
AcDbPolyline
90
2
70
1
43
0.0
10
345.60543089003266
20
151.22627154765439
10
345.59989161051885
20
151.06189350945991
0
LWPOLYLINE
5
111
100
AcDbEntity
8
0
100
AcDbPolyline
90
42
70
1
43
0.0
10
347.67432737440794
20
153.43999420390449
10
347.51634668864392
20
153.41315522821009
10
347.36204438829668
20
153.37619906501561
10
347.21177854628286
20
153.3294824851545
10
347.06590723551881
20
153.27336225946001
10
346.92478852892174
20
153.20819515876559
10
346.78878049940778
20
153.13433795390449
10
346.65824121989402
20
153.05214741571001
10
346.53352876329672
20
152.9619803150155
10
346.41500120253278
20
152.86419342265441
10
346.30301661051902
20
152.75914350946005
10
346.19793306017164
20
152.6471873462655
10
346.10010862440782
20
152.5286817039044
10
346.00990137614383
20
152.40398335321001
10
345.92766938829664
20
152.27344906501551
10
345.85377073378282
20
152.1374356101544
10
345.78856348551881
20
151.9962997594599
10
345.73240571642168
20
151.85039828376551
10
345.68565549940763
20
151.70008795390439
10
345.64867090739381
20
151.54572554070992
10
345.62181001329668
20
151.3876678150155
10
345.60543089003266
20
151.22627154765439
10
345.62181001329668
20
151.3876678150155
10
345.64867090739381
20
151.54572554070992
10
345.68565549940763
20
151.70008795390439
10
345.73240571642168
20
151.85039828376551
10
345.78856348551881
20
151.9962997594599
10
345.85377073378282
20
152.1374356101544
10
345.92766938829664
20
152.27344906501551
10
346.00990137614383
20
152.40398335321001
10
346.10010862440782
20
152.5286817039044
10
346.19793306017164
20
152.6471873462655
10
346.30301661051902
20
152.75914350946005
10
346.41500120253278
20
152.86419342265441
10
346.53352876329672
20
152.9619803150155
10
346.65824121989402
20
153.05214741571001
10
346.78878049940778
20
153.13433795390449
10
346.92478852892174
20
153.20819515876559
10
347.06590723551881
20
153.27336225946001
10
347.21177854628286
20
153.3294824851545
10
347.36204438829668
20
153.37619906501561
10
347.51634668864392
20
153.41315522821009
0
LWPOLYLINE
5
112
100
AcDbEntity
8
0
100
AcDbPolyline
90
4
70
1
43
0.0
10
347.99989161051889
20
153.46189350946008
10
347.83562837267164
20
153.4563592212657
10
347.67432737440794
20
153.43999420390449
10
347.83562837267164
20
153.4563592212657
0
LWPOLYLINE
5
113
100
AcDbEntity
8
0
100
AcDbPolyline
90
36
70
1
43
0.0
10
354.21120411051891
20
151.99629975946004
10
354.14598767533369
20
152.1374356101544
10
354.07207679570411
20
152.2734490650156
10
353.98982911051888
20
152.40398335321001
10
353.89960225866719
20
152.5286817039044
10
353.80175387903739
20
152.64718734626564
10
353.69664161051901
20
152.75914350946005
10
353.58462309200058
20
152.86419342265441
10
353.46605596237083
20
152.96198031501561
10
353.34129786051892
20
153.05214741571001
10
353.21070642533368
20
153.13433795390449
10
353.07463929570417
20
153.20819515876559
10
352.93345411051888
20
153.27336225946001
10
352.78750850866697
20
153.3294824851545
10
352.63716012903751
20
153.37619906501561
10
352.48276661051887
20
153.41315522821
10
352.32468559200038
20
153.43999420390449
10
352.16327471237071
20
153.45635922126561
10
351.99889161051885
20
153.46189350946
10
352.16327471237071
20
153.45635922126561
10
352.32468559200038
20
153.43999420390449
10
352.48276661051887
20
153.41315522821
10
352.63716012903751
20
153.37619906501561
10
352.78750850866697
20
153.3294824851545
10
352.93345411051888
20
153.27336225946001
10
353.07463929570417
20
153.20819515876559
10
353.21070642533368
20
153.13433795390449
10
353.34129786051892
20
153.05214741571001
10
353.46605596237083
20
152.96198031501561
10
353.58462309200058
20
152.86419342265441
10
353.69664161051901
20
152.75914350946005
10
353.80175387903739
20
152.64718734626564
10
353.89960225866719
20
152.5286817039044
10
353.98982911051888
20
152.40398335321001
10
354.07207679570411
20
152.2734490650156
10
354.14598767533369
20
152.1374356101544
0
LWPOLYLINE
5
114
100
AcDbEntity
8
0
100
AcDbPolyline
90
12
70
1
43
0.0
10
354.39989161051881
20
151.06189350946008
10
354.39435225866697
20
151.22627154765451
10
354.37797262903752
20
151.38766781501559
10
354.35111036051887
20
151.54572554071001
10
354.31412309200033
20
151.70008795390453
10
354.26736846237088
20
151.8503982837656
10
354.21120411051891
20
151.99629975946004
10
354.26736846237088
20
151.8503982837656
10
354.31412309200033
20
151.70008795390453
10
354.35111036051887
20
151.54572554071001
10
354.37797262903752
20
151.38766781501559
10
354.39435225866697
20
151.22627154765451
0
LWPOLYLINE
5
115
100
AcDbEntity
8
0
100
AcDbPolyline
90
2
70
1
43
0.0
10
354.39989161051892
20
150.13689350946061
10
354.39989161051881
20
151.06189350946008
0
LWPOLYLINE
5
116
100
AcDbEntity
8
0
100
AcDbPolyline
90
49
70
1
43
0.0
10
349.27801661051888
20
151.84939350946001
10
349.18535167996339
20
151.75460184279342
10
349.10544716607461
20
151.64522684279342
10
349.04012598551901
20
151.52126850946001
10
348.99121105496357
20
151.3827268427934
10
348.96052529107459
20
151.2296018427933
10
348.94989161051888
20
151.06189350946005
10
348.96052529107459
20
150.89418517612668
10
348.99121105496357
20
150.74106017612672
10
349.04012598551901
20
150.60251850946008
10
349.10544716607461
20
150.47856017612679
10
349.18535167996339
20
150.36918517612679
10
349.27801661051888
20
150.27439350946008
10
349.38161904107454
20
150.19418517612681
10
349.49433605496353
20
150.1285601761268
10
349.61434473551901
20
150.07751850946008
10
349.73982216607453
20
150.04106017612668
10
349.86894542996333
20
150.0191851761268
10
349.99989161051894
20
150.01189350946009
10
350.13083779107461
20
150.01918517612668
10
350.25996105496341
20
150.04106017612668
10
350.38543848551888
20
150.07751850946008
10
350.50544716607453
20
150.12856017612671
10
350.61816417996334
20
150.19418517612672
10
350.72176661051907
20
150.27439350946
10
350.81443154107438
20
150.36918517612668
10
350.89433605496333
20
150.47856017612668
10
350.95965723551893
20
150.60251850946
10
351.0085721660746
20
150.74106017612672
10
351.03925792996336
20
150.89418517612668
10
351.04989161051884
20
151.06189350946005
10
351.04989161051884
20
151.06189350946005
10
351.03925792996336
20
151.22960184279344
10
351.0085721660746
20
151.3827268427934
10
350.95965723551893
20
151.52126850946001
10
350.89433605496333
20
151.64522684279342
10
350.81443154107438
20
151.75460184279342
10
350.72176661051878
20
151.84939350946001
10
350.61816417996334
20
151.9296018427934
10
350.50544716607453
20
151.99522684279341
10
350.38543848551888
20
152.04626850946008
10
350.25996105496341
20
152.08272684279342
10
350.13083779107461
20
152.10460184279341
10
349.99989161051894
20
152.11189350946009
10
349.86894542996339
20
152.10460184279341
10
349.73982216607453
20
152.08272684279342
10
349.61434473551901
20
152.04626850946008
10
349.49433605496353
20
151.99522684279341
10
349.38161904107454
20
151.9296018427934
0
LWPOLYLINE
5
117
100
AcDbEntity
8
0
100
AcDbPolyline
90
2
70
1
43
0.0
10
354.39989161051892
20
150.13689350946061
10
354.4001083894812
20
146.5386366513749
0
LWPOLYLINE
5
118
100
AcDbEntity
8
0
100
AcDbPolyline
90
2
70
1
43
0.0
10
345.59989161051885
20
150.13689350946004
10
345.60010842142083
20
146.53810649053992
0
LINE
5
119
100
AcDbEntity
8
0
100
AcDbLine
10
351.99889161051885
20
153.46189350946
30
0
11
347.99989161051889
21
153.46189350946008
31
0
0
CIRCLE
5
120
100
AcDbEntity
8
0
100
AcDbCircle
10
250.84999999999994
20
5.2500000000000444
30
0
40
1.6749999999999898
210
0
220
0
230
1
0
LWPOLYLINE
5
121
100
AcDbEntity
8
0
100
AcDbPolyline
90
6
70
1
43
0.0
10
510.72457351945707
20
5.2500000000000853
10
512.31228675972841
20
2.5000000000000848
10
515.48771324027143
20
2.5000000000000848
10
517.07542648054289
20
5.2500000000000853
10
515.48771324027143
20
8
10
512.31228675972841
20
8
0
LWPOLYLINE
5
122
100
AcDbEntity
8
0
100
AcDbPolyline
90
6
70
1
43
0.0
10
270.63771324027158
20
9.7499999999999574
10
267.46228675972861
20
9.7499999999999574
10
265.8745735194571
20
7.0000000000000426
10
267.46228675972861
20
4.2500000000000426
10
270.63771324027158
20
4.2500000000000426
10
272.22542648054298
20
7.0000000000000426
0
CIRCLE
5
123
100
AcDbEntity
8
0
100
AcDbCircle
10
6.0000000000000009
20
7.0000000000000009
30
0
40
1.6749999999999898
210
0
220
0
230
1
0
LWPOLYLINE
5
124
100
AcDbEntity
8
0
100
AcDbPolyline
90
6
70
1
43
0.0
10
307.97521324027139
20
97.999999999999943
10
306.38750000000005
20
95.25
10
307.97521324027139
20
92.5
10
311.15063972081452
20
92.5
10
312.73835296108587
20
95.25
10
311.15063972081452
20
97.999999999999943
0
CIRCLE
5
125
100
AcDbEntity
8
0
100
AcDbCircle
10
46.512926480542973
20
95.249999999999972
30
0
40
1.6749999999999898
210
0
220
0
230
1
0
CIRCLE
5
126
100
AcDbEntity
8
0
100
AcDbCircle
10
241.65000000000006
20
103.53749999999999
30
0
40
1.6749999999999898
210
0
220
0
230
1
0
LINE
5
127
100
AcDbEntity
8
0
100
AcDbLine
10
247.65000000000009
20
107.93750000000001
30
0
11
247.65000000000009
21
103.53749999999999
31
0
0
LWPOLYLINE
5
128
100
AcDbEntity
8
0
100
AcDbPolyline
90
6
70
1
43
0.0
10
503.1122867597287
20
106.28749999999991
10
501.52457351945714
20
103.53749999999999
10
503.1122867597287
20
100.78749999999999
10
506.28771324027161
20
100.78749999999999
10
507.87542648054318
20
103.53749999999999
10
506.28771324027161
20
106.28749999999991
0
LINE
5
129
100
AcDbEntity
8
0
100
AcDbLine
10
510.70000000000022
20
107.93750000000001
30
0
11
510.70000000000027
21
103.53749999999999
31
0
0
LINE
5
130
100
AcDbEntity
8
0
100
AcDbLine
10
269.97500000000002
20
-114.76875
30
0
11
508.02499999999986
21
-114.76875
31
0
0
LINE
5
131
100
AcDbEntity
8
0
100
AcDbLine
10
270.33749999999998
20
-5.2312500000000455
30
0
11
508.02499999999986
21
-5.2312500000000455
31
0
0
LINE
5
132
100
AcDbEntity
8
0
100
AcDbLine
10
261.97500000000002
20
-106.76875000000001
30
0
11
261.97500000000002
21
-97.76875000000004
31
0
0
LINE
5
133
100
AcDbEntity
8
0
100
AcDbLine
10
509.62499999999989
20
-103.76875
30
0
11
509.62500000000006
21
-6.831250000000022
31
0
0
LWPOLYLINE
5
134
100
AcDbEntity
8
0
100
AcDbPolyline
90
17
70
1
43
0.0
10
276.26249999999999
20
-8.9937500000000341
10
295.31249999999989
20
-8.9937500000000341
10
296.31249999999989
20
-8.9937500000000359
10
296.31249999999989
20
-29.043750000000053
10
503.2625000000001
20
-29.043750000000053
10
504.2625000000001
20
-29.04374999999995
42
-0.41421356237309426
10
505.86250000000018
20
-30.643750000000054
10
505.86250000000018
20
-107.40625000000001
10
505.86250000000018
20
-108.40625000000001
10
505.86250000000007
20
-109.40625
42
-0.41421356237309503
10
504.2625000000001
20
-111.00625000000001
10
469.36250000000001
20
-111.00625000000001
10
313.76249999999993
20
-111.00625000000001
10
276.86250000000001
20
-111.00624999999991
42
-0.41421356237309503
10
275.26249999999999
20
-109.4062499999999
10
275.26249999999999
20
-30.04374999999996
10
275.26249999999999
20
-8.9937500000000359
0
ARC
5
135
100
AcDbEntity
8
0
100
AcDbCircle
10
270.33749999999998
20
-6.8312500000000407
30
0
40
1.5999999999999959
210
0
220
-0
230
1
100
AcDbArc
50
90
51
180
0
ARC
5
136
100
AcDbEntity
8
0
100
AcDbCircle
10
508.02499999999986
20
-6.8312500000000131
30
0
40
1.6000000000001791
210
0
220
0
230
1
100
AcDbArc
50
0
51
90
0
ARC
5
137
100
AcDbEntity
8
0
100
AcDbCircle
10
269.97500000000002
20
-106.76875000000001
30
0
40
7.9999999999999716
210
0
220
0
230
1
100
AcDbArc
50
180
51
270
0
LWPOLYLINE
5
138
100
AcDbEntity
8
0
100
AcDbPolyline
90
6
70
1
43
0.0
10
266.38728675972851
20
-105.01875000000011
10
264.799573519457
20
-107.76875000000001
10
266.38728675972851
20
-110.51875000000001
10
269.56271324027148
20
-110.51875000000001
10
271.15042648054293
20
-107.76875000000001
10
269.56271324027148
20
-105.01875000000011
0
LWPOLYLINE
5
139
100
AcDbEntity
8
0
100
AcDbPolyline
90
6
70
1
43
0.0
10
311.66335296108593
20
-19.51875000000004
10
310.07563972081437
20
-16.768750000000132
10
306.90021324027146
20
-16.768750000000132
10
305.31249999999989
20
-19.51875000000004
10
306.90021324027146
20
-22.26875000000004
10
310.07563972081437
20
-22.26875000000004
0
LWPOLYLINE
5
140
100
AcDbEntity
8
0
100
AcDbPolyline
90
6
70
1
43
0.0
10
502.03728675972849
20
-13.981249999999992
10
505.21271324027163
20
-13.981249999999992
10
506.80042648054297
20
-11.23124999999999
10
505.21271324027163
20
-8.4812500000000739
10
502.03728675972849
20
-8.4812500000000739
10
500.44957351945703
20
-11.23124999999999
0
LWPOLYLINE
5
141
100
AcDbEntity
8
0
100
AcDbPolyline
90
6
70
1
43
0.0
10
511.23728675972814
20
-112.26875
10
514.41271324027139
20
-112.26875
10
516.00042648054273
20
-109.51875000000001
10
514.41271324027139
20
-106.76875000000001
10
511.23728675972814
20
-106.76875000000001
10
509.64957351945691
20
-109.51875000000001
0
LINE
5
142
100
AcDbEntity
8
0
100
AcDbLine
10
518.02499999999986
20
-105.76875000000001
30
0
11
518.02499999999986
21
-113.76875
31
0
0
LINE
5
143
100
AcDbEntity
8
0
100
AcDbLine
10
508.02499999999986
20
-114.76875
30
0
11
517.02499999999986
21
-114.76875
31
0
0
LINE
5
144
100
AcDbEntity
8
0
100
AcDbLine
10
510.625
20
-104.76875
30
0
11
517.0250000000002
21
-104.76875
31
0
0
ARC
5
145
100
AcDbEntity
8
0
100
AcDbCircle
10
517.02499999999986
20
-113.76875
30
0
40
0.99999999999999645
210
0
220
0
230
1
100
AcDbArc
50
-90
51
0
0
ARC
5
146
100
AcDbEntity
8
0
100
AcDbCircle
10
517.0250000000002
20
-105.76875000000001
30
0
40
0.99999999999965894
210
0
220
0
230
1
100
AcDbArc
50
0
51
90
0
ARC
5
147
100
AcDbEntity
8
0
100
AcDbCircle
10
510.625
20
-103.76875
30
0
40
1.0000000000000853
210
0
220
0
230
1
100
AcDbArc
50
180
51
270
0
LINE
5
148
100
AcDbEntity
8
0
100
AcDbLine
10
509.62500000000006
20
-6.831250000000022
30
0
11
509.62500000000006
21
-11.231250000000031
31
0
0
ARC
5
149
100
AcDbEntity
8
0
100
AcDbCircle
10
262.97500000000002
20
-97.76875000000004
30
0
40
0.99999999999999645
210
0
220
-0
230
1
100
AcDbArc
50
90
51
180
0
ARC
5
150
100
AcDbEntity
8
0
100
AcDbCircle
10
267.73750000000001
20
-95.76875000000004
30
0
40
0.99999999999999645
210
0
220
0
230
1
100
AcDbArc
50
-90
51
0
0
LINE
5
151
100
AcDbEntity
8
0
100
AcDbLine
10
262.97500000000002
20
-96.76875000000004
30
0
11
267.73750000000001
21
-96.76875000000004
31
0
0
LINE
5
152
100
AcDbEntity
8
0
100
AcDbLine
10
268.74048769419238
20
-34.304678222590283
30
0
11
268.73750000000007
21
-95.76875000000004
31
0
0
LINE
5
153
100
AcDbEntity
8
0
100
AcDbLine
10
9.9749999999999659
20
-114.76875
30
0
11
248.02500000000003
21
-114.76875
31
0
0
LINE
5
154
100
AcDbEntity
8
0
100
AcDbLine
10
10.337499999999922
20
-5.2312500000000028
30
0
11
248.02500000000003
21
-5.2312500000000028
31
0
0
LINE
5
155
100
AcDbEntity
8
0
100
AcDbLine
10
249.62500000000003
20
-103.76875000000005
30
0
11
249.62500000000009
21
-6.8312500000000398
31
0
0
ARC
5
156
100
AcDbEntity
8
0
100
AcDbCircle
10
248.02500000000003
20
-6.8312500000000398
30
0
40
1.6000000000000725
210
0
220
0
230
1
100
AcDbArc
50
0
51
90
0
ARC
5
157
100
AcDbEntity
8
0
100
AcDbCircle
10
9.9749999999999659
20
-106.76875000000003
30
0
40
7.9999999999999991
210
0
220
0
230
1
100
AcDbArc
50
180
51
270
0
CIRCLE
5
158
100
AcDbEntity
8
0
100
AcDbCircle
10
252.82499999999996
20
-109.51875000000001
30
0
40
1.6749999999999898
210
0
220
0
230
1
0
CIRCLE
5
159
100
AcDbEntity
8
0
100
AcDbCircle
10
7.9749999999999659
20
-107.76875000000004
30
0
40
1.6749999999999898
210
0
220
0
230
1
0
CIRCLE
5
160
100
AcDbEntity
8
0
100
AcDbCircle
10
48.487926480542939
20
-19.518750000000082
30
0
40
1.6749999999999898
210
0
220
0
230
1
0
CIRCLE
5
161
100
AcDbEntity
8
0
100
AcDbCircle
10
243.62500000000011
20
-11.231250000000017
30
0
40
1.6749999999999898
210
0
220
0
230
1
0
LINE
5
162
100
AcDbEntity
8
0
100
AcDbLine
10
258.02499999999998
20
-105.76875000000001
30
0
11
258.02499999999998
21
-113.76875000000005
31
0
0
LINE
5
163
100
AcDbEntity
8
0
100
AcDbLine
10
248.02500000000003
20
-114.76875
30
0
11
257.02499999999998
21
-114.76875
31
0
0
LINE
5
164
100
AcDbEntity
8
0
100
AcDbLine
10
250.625
20
-104.76875
30
0
11
257.02500000000009
21
-104.76875
31
0
0
ARC
5
165
100
AcDbEntity
8
0
100
AcDbCircle
10
257.02499999999998
20
-113.76875000000005
30
0
40
0.99999999999994316
210
0
220
0
230
1
100
AcDbArc
50
-90
51
0
0
ARC
5
166
100
AcDbEntity
8
0
100
AcDbCircle
10
257.02500000000009
20
-105.76875000000001
30
0
40
0.9999999999998721
210
0
220
0
230
1
100
AcDbArc
50
0
51
90
0
ARC
5
167
100
AcDbEntity
8
0
100
AcDbCircle
10
250.625
20
-103.76875000000005
30
0
40
0.99999999999997868
210
0
220
0
230
1
100
AcDbArc
50
180
51
270
0
LINE
5
168
100
AcDbEntity
8
0
100
AcDbLine
10
249.62500000000009
20
-6.8312500000000398
30
0
11
249.62500000000009
21
-11.231250000000017
31
0
0
LINE
5
169
100
AcDbEntity
8
0
100
AcDbLine
10
1.9749999999999668
20
-106.76875000000003
30
0
11
1.9749999999999657
21
-97.768750000000111
31
0
0
ARC
5
170
100
AcDbEntity
8
0
100
AcDbCircle
10
10.337499999999922
20
-6.8312500000000753
30
0
40
1.6000000000000725
210
0
220
-0
230
1
100
AcDbArc
50
90
51
180
0
ARC
5
171
100
AcDbEntity
8
0
100
AcDbCircle
10
2.9749999999999659
20
-97.768750000000111
30
0
40
1.0000000000000142
210
0
220
-0
230
1
100
AcDbArc
50
90
51
180
0
ARC
5
172
100
AcDbEntity
8
0
100
AcDbCircle
10
7.7374999999999545
20
-95.768750000000153
30
0
40
1.0000000000000142
210
0
220
0
230
1
100
AcDbArc
50
-90
51
0
0
LINE
5
173
100
AcDbEntity
8
0
100
AcDbLine
10
2.9749999999999659
20
-96.768750000000097
30
0
11
7.7374999999999545
21
-96.768750000000168
31
0
0
LINE
5
174
100
AcDbEntity
8
0
100
AcDbLine
10
270.33749999999992
20
-235.23124999999999
30
0
11
508.02500000000003
21
-235.23124999999999
31
0
0
ARC
5
175
100
AcDbEntity
8
0
100
AcDbCircle
10
270.33749999999992
20
-236.83125000000007
30
0
40
1.6000000000000725
210
0
220
-0
230
1
100
AcDbArc
50
90
51
180
0
ARC
5
176
100
AcDbEntity
8
0
100
AcDbCircle
10
508.02500000000003
20
-236.83125000000004
30
0
40
1.6000000000000369
210
0
220
0
230
1
100
AcDbArc
50
0
51
90
0
CIRCLE
5
177
100
AcDbEntity
8
0
100
AcDbCircle
10
308.48792648054285
20
-249.51875000000007
30
0
40
1.6749999999999898
210
0
220
0
230
1
0
CIRCLE
5
178
100
AcDbEntity
8
0
100
AcDbCircle
10
503.62500000000006
20
-241.23125000000002
30
0
40
1.6749999999999898
210
0
220
0
230
1
0
LINE
5
179
100
AcDbEntity
8
0
100
AcDbLine
10
509.62500000000006
20
-236.83125000000004
30
0
11
509.62500000000006
21
-241.23125000000002
31
0
0
ARC
5
180
100
AcDbEntity
8
0
100
AcDbCircle
10
489.62500000000006
20
-258.23124999999999
30
0
40
20
210
0
220
0
230
1
100
AcDbArc
50
-90
51
0
0
LINE
5
181
100
AcDbEntity
8
0
100
AcDbLine
10
489.62500000000006
20
-278.23124999999999
30
0
11
286.91129887710099
21
-278.23124999999999
31
0
0
LINE
5
182
100
AcDbEntity
8
0
100
AcDbLine
10
509.62500000000006
20
-258.23124999999999
30
0
11
509.62500000000006
21
-241.23125000000002
31
0
0
LWPOLYLINE
5
183
100
AcDbEntity
8
0
100
AcDbPolyline
90
2
70
1
43
0.0
10
8.7374999999999545
20
-59.935860381272121
10
8.7374999999999545
20
-95.768750000000153
0
LINE
5
184
100
AcDbEntity
8
0
100
AcDbLine
10
274.73258073576648
20
-269.79359497602456
30
0
11
280.25895120101188
21
-273.62237292944212
31
0
0
LINE
5
185
100
AcDbEntity
8
0
100
AcDbLine
10
280.25895120101188
20
-273.62237292944212
30
0
11
285.78532166625723
21
-277.45115088285951
31
0
0
LINE
5
186
100
AcDbEntity
8
0
100
AcDbLine
10
285.78532166625723
20
-277.45115088285951
30
0
11
286.91129887710099
21
-278.23124999999999
31
0
0
ARC
5
187
100
AcDbEntity
8
0
100
AcDbCircle
10
269.26249999999982
20
-9.5937500000000284
30
0
40
1.6000000000000014
210
0
220
0
230
1
100
AcDbArc
50
0
51
89.999999999997954
0
ARC
5
188
100
AcDbEntity
8
0
100
AcDbCircle
10
269.26249999999999
20
-32.123748332682339
30
0
40
1.6000000000000236
210
0
220
0
230
1
100
AcDbArc
50
-90.000000000002032
51
0
0
LINE
5
189
100
AcDbEntity
8
0
100
AcDbLine
10
270.86249999999984
20
-9.5937500000000284
30
0
11
270.86250000000001
21
-32.123748332682339
31
0
0
LINE
5
190
100
AcDbEntity
8
0
100
AcDbLine
10
268.73749999999995
20
-6.8312500000000407
30
0
11
268.73750000000001
21
-7.4687500000001972
31
0
0
ARC
5
191
100
AcDbEntity
8
0
100
AcDbCircle
10
269.2624999999997
20
-7.4687500000001705
30
0
40
0.52499999999985736
210
0
220
0
230
1
100
AcDbArc
50
173.88449643369796
51
270.00000000001864
0
ARC
5
192
100
AcDbEntity
8
0
100
AcDbCircle
10
269.2625000000001
20
-34.248748332682148
30
0
40
0.52499999999978453
210
0
220
0
230
1
100
AcDbArc
50
90.000000000018616
51
186.11550356630329
0
ARC
5
193
100
AcDbEntity
8
0
100
AcDbCircle
10
9.2624999999998181
20
-9.5937500000000142
30
0
40
1.6000000000000103
210
0
220
0
230
1
100
AcDbArc
50
0
51
89.999999999998991
0
LINE
5
194
100
AcDbEntity
8
0
100
AcDbLine
10
8.7374999999999208
20
-6.8312500000000753
30
0
11
8.7375000000000114
21
-7.4687500000002061
31
0
0
ARC
5
195
100
AcDbEntity
8
0
100
AcDbCircle
10
9.2624999999997026
20
-7.4687500000002061
30
0
40
0.52499999999985025
210
0
220
0
230
1
100
AcDbArc
50
173.88449643369759
51
270.00000000001563
0
LINE
5
196
100
AcDbEntity
8
0
100
AcDbLine
10
270.17159933622241
20
-230.42524361448741
30
0
11
508.22159933622225
21
-230.42524361448741
31
0
0
LINE
5
197
100
AcDbEntity
8
0
100
AcDbLine
10
270.53409933622231
20
-120.88774361448742
30
0
11
508.22159933622225
21
-120.88774361448742
31
0
0
LINE
5
198
100
AcDbEntity
8
0
100
AcDbLine
10
509.82159933622211
20
-219.42524361448744
30
0
11
509.82159933622233
21
-122.4877436144874
31
0
0
ARC
5
199
100
AcDbEntity
8
0
100
AcDbCircle
10
270.53409933622231
20
-122.4877436144874
30
0
40
1.5999999999999837
210
0
220
-0
230
1
100
AcDbArc
50
90
51
180
0
ARC
5
200
100
AcDbEntity
8
0
100
AcDbCircle
10
508.22159933622225
20
-122.4877436144874
30
0
40
1.600000000000108
210
0
220
0
230
1
100
AcDbArc
50
0
51
90
0
ARC
5
201
100
AcDbEntity
8
0
100
AcDbCircle
10
269.45909933622221
20
-125.25024361448742
30
0
40
1.6000000000000014
210
0
220
0
230
1
100
AcDbArc
50
0
51
89.999999999997954
0
ARC
5
202
100
AcDbEntity
8
0
100
AcDbCircle
10
270.17159933622241
20
-222.42524361448744
30
0
40
8.0000000000000071
210
0
220
0
230
1
100
AcDbArc
50
180
51
270
0
LWPOLYLINE
5
203
100
AcDbEntity
8
0
100
AcDbPolyline
90
6
70
1
43
0.0
10
266.58388609595079
20
-226.17524361448744
10
269.75931257649381
20
-226.17524361448744
10
271.34702581676515
20
-223.42524361448741
10
269.75931257649381
20
-220.6752436144875
10
266.58388609595079
20
-220.6752436144875
10
264.99617285567933
20
-223.42524361448741
0
LWPOLYLINE
5
204
100
AcDbEntity
8
0
100
AcDbPolyline
90
6
70
1
43
0.0
10
307.09681257649368
20
-132.4252436144875
10
305.50909933622216
20
-135.17524361448744
10
307.09681257649368
20
-137.92524361448741
10
310.27223905703687
20
-137.92524361448741
10
311.85995229730821
20
-135.17524361448744
10
310.27223905703687
20
-132.4252436144875
0
LWPOLYLINE
5
205
100
AcDbEntity
8
0
100
AcDbPolyline
90
12
70
1
43
0.0
10
500.64617285567931
20
-126.88774361448742
10
502.23388609595077
20
-129.63774361448739
10
505.4093125764939
20
-129.63774361448739
10
506.99702581676524
20
-126.88774361448742
10
505.4093125764939
20
-124.1377436144875
10
502.23388609595077
20
-124.1377436144875
10
500.64617285567931
20
-126.88774361448742
10
502.23388609595077
20
-129.63774361448739
10
505.4093125764939
20
-129.63774361448739
10
506.99702581676524
20
-126.88774361448742
10
505.4093125764939
20
-124.1377436144875
10
502.23388609595077
20
-124.1377436144875
0
LWPOLYLINE
5
206
100
AcDbEntity
8
0
100
AcDbPolyline
90
6
70
1
43
0.0
10
516.19702581676518
20
-225.17524361448744
10
514.60931257649372
20
-222.42524361448744
10
511.43388609595064
20
-222.42524361448744
10
509.84617285567913
20
-225.17524361448744
10
511.43388609595064
20
-227.92524361448741
10
514.60931257649372
20
-227.92524361448741
0
LINE
5
207
100
AcDbEntity
8
0
100
AcDbLine
10
518.2215993362222
20
-221.42524361448744
30
0
11
518.2215993362222
21
-229.42524361448744
31
0
0
LINE
5
208
100
AcDbEntity
8
0
100
AcDbLine
10
508.22159933622225
20
-230.42524361448741
30
0
11
517.2215993362222
21
-230.42524361448741
31
0
0
LINE
5
209
100
AcDbEntity
8
0
100
AcDbLine
10
510.82159933622233
20
-220.42524361448741
30
0
11
517.22159933622243
21
-220.42524361448741
31
0
0
ARC
5
210
100
AcDbEntity
8
0
100
AcDbCircle
10
517.2215993362222
20
-229.42524361448744
30
0
40
0.99999999999997868
210
0
220
0
230
1
100
AcDbArc
50
-90
51
0
0
ARC
5
211
100
AcDbEntity
8
0
100
AcDbCircle
10
517.22159933622243
20
-221.42524361448744
30
0
40
0.99999999999980105
210
0
220
0
230
1
100
AcDbArc
50
0
51
90
0
ARC
5
212
100
AcDbEntity
8
0
100
AcDbCircle
10
263.17159933622241
20
-213.42524361448741
30
0
40
1.0000000000000142
210
0
220
-0
230
1
100
AcDbArc
50
90
51
180
0
ARC
5
213
100
AcDbEntity
8
0
100
AcDbCircle
10
510.82159933622233
20
-219.42524361448744
30
0
40
1.0000000000002274
210
0
220
0
230
1
100
AcDbArc
50
180
51
270
0
ARC
5
214
100
AcDbEntity
8
0
100
AcDbCircle
10
267.93409933622229
20
-211.42524361448744
30
0
40
1.0000000000000142
210
0
220
0
230
1
100
AcDbArc
50
-90
51
0
0
LINE
5
215
100
AcDbEntity
8
0
100
AcDbLine
10
509.82159933622233
20
-122.4877436144874
30
0
11
509.82159933622233
21
-126.88774361448742
31
0
0
LINE
5
216
100
AcDbEntity
8
0
100
AcDbLine
10
263.17159933622241
20
-212.42524361448741
30
0
11
267.93409933622229
21
-212.42524361448744
31
0
0
LINE
5
217
100
AcDbEntity
8
0
100
AcDbLine
10
268.93409933622235
20
-122.4877436144874
30
0
11
268.93409933622229
21
-123.12524361448759
31
0
0
ARC
5
218
100
AcDbEntity
8
0
100
AcDbCircle
10
269.45909933622198
20
-123.12524361448759
30
0
40
0.52499999999985791
210
0
220
0
230
1
100
AcDbArc
50
173.88449643369748
51
270.00000000003104
0
ARC
5
219
100
AcDbEntity
8
0
100
AcDbCircle
10
269.26249999999959
20
-239.59375
30
0
40
1.6000000000000014
210
0
220
0
230
1
100
AcDbArc
50
0
51
89.999999999997954
0
LINE
5
220
100
AcDbEntity
8
0
100
AcDbLine
10
268.73749999999995
20
-236.83125000000007
30
0
11
268.73749999999978
21
-237.4687500000002
31
0
0
ARC
5
221
100
AcDbEntity
8
0
100
AcDbCircle
10
269.26249999999948
20
-237.4687500000002
30
0
40
0.52499999999985791
210
0
220
0
230
1
100
AcDbArc
50
173.88449643369748
51
270.00000000001864
0
LINE
5
222
100
AcDbEntity
8
0
100
AcDbLine
10
262.17159933622241
20
-213.42524361448741
30
0
11
262.17159933622241
21
-222.42524361448744
31
0
0
LINE
5
223
100
AcDbEntity
8
0
100
AcDbLine
10
271.05909933622223
20
-125.25024361448742
30
0
11
271.05772887097703
21
-147.0254444947162
31
0
0
LINE
5
224
100
AcDbEntity
8
0
100
AcDbLine
10
268.93409933622229
20
-175.59235399575931
30
0
11
268.93409933622229
21
-211.42524361448744
31
0
0
ARC
5
225
100
AcDbEntity
8
0
100
AcDbCircle
10
274.45909933622232
20
-148.65437645061101
30
0
40
1.000000000000028
210
0
220
0
230
1
100
AcDbArc
50
-121.99999999999964
51
3.0000000000005302
0
ARC
5
226
100
AcDbEntity
8
0
100
AcDbCircle
10
274.45909933622238
20
-167.90017941000519
30
0
40
0.99999999999997691
210
0
220
0
230
1
100
AcDbArc
50
-3.0000000000023577
51
121.99999999999947
0
ARC
5
227
100
AcDbEntity
8
0
100
AcDbCircle
10
269.93135840573132
20
-170.69702590824917
30
0
40
0.99999999999981704
210
0
220
0
230
1
100
AcDbArc
50
121.99999999999656
51
177.00000000000858
0
ARC
5
228
100
AcDbEntity
8
0
100
AcDbCircle
10
272.05635840573137
20
-146.97310853847341
30
0
40
0.99999999999979017
210
0
220
0
230
1
100
AcDbArc
50
182.99999999999153
51
238.00000000000534
0
LINE
5
229
100
AcDbEntity
8
0
100
AcDbLine
10
269.40143914149826
20
-169.84897781209287
30
0
11
273.92918007198921
21
-167.0521313138488
31
0
0
LINE
5
230
100
AcDbEntity
8
0
100
AcDbLine
10
271.52643914149837
20
-147.82115663462969
30
0
11
273.92918007198909
21
-149.50242454676749
31
0
0
LINE
5
231
100
AcDbEntity
8
0
100
AcDbLine
10
268.93409933622229
20
-175.59235399575931
30
0
11
268.93272887097692
21
-170.64468995200639
31
0
0
LINE
5
232
100
AcDbEntity
8
0
100
AcDbLine
10
10.862499999999828
20
-9.5937500000000142
30
0
11
10.861129534754641
21
-31.36895088022893
31
0
0
ARC
5
233
100
AcDbEntity
8
0
100
AcDbCircle
10
9.7347590695089679
20
-55.040532293761899
30
0
40
0.99999999999982059
210
0
220
0
230
1
100
AcDbArc
50
121.99999999999746
51
177.00000000000833
0
ARC
5
234
100
AcDbEntity
8
0
100
AcDbCircle
10
11.859759069508979
20
-31.316614923986101
30
0
40
0.99999999999975875
210
0
220
0
230
1
100
AcDbArc
50
182.99999999999395
51
238.00000000000608
0
LINE
5
235
100
AcDbEntity
8
0
100
AcDbLine
10
9.2048398052758955
20
-54.192484197605602
30
0
11
14.722557847518122
21
-50.395637699361515
31
0
0
LINE
5
236
100
AcDbEntity
8
0
100
AcDbLine
10
11.329839805275979
20
-32.164663020142399
30
0
11
14.731210270521281
21
-34.845930932280069
31
0
0
LINE
5
237
100
AcDbEntity
8
0
100
AcDbLine
10
8.7374999999999545
20
-59.935860381272121
30
0
11
8.7361295347545553
21
-54.988196337519106
31
0
0
LINE
5
238
100
AcDbEntity
8
0
100
AcDbLine
10
14.722557847518122
20
-50.395637699361515
30
0
11
14.731210270521281
21
-34.845930932280069
31
0
0
ARC
5
239
100
AcDbEntity
8
0
100
AcDbCircle
10
269.26249999999982
20
-238.95624999999995
30
0
40
1.6000000000000014
210
0
220
0
230
1
100
AcDbArc
50
0
51
89.999999999997954
0
LINE
5
240
100
AcDbEntity
8
0
100
AcDbLine
10
270.86249999999984
20
-238.95624999999995
30
0
11
270.86112953475458
21
-260.73145088022869
31
0
0
ARC
5
241
100
AcDbEntity
8
0
100
AcDbCircle
10
271.85975906950887
20
-260.67911492398588
30
0
40
0.99999999999968381
210
0
220
0
230
1
100
AcDbArc
50
182.99999999999335
51
238.00000000000708
0
ARC
5
242
100
AcDbEntity
8
0
100
AcDbCircle
10
269.26249999999959
20
-236.83125000000007
30
0
40
0.52499999999985791
210
0
220
0
230
1
100
AcDbArc
50
173.88449643369748
51
270.00000000003104
0
LINE
5
243
100
AcDbEntity
8
0
100
AcDbLine
10
271.32983980527587
20
-261.52716302014221
30
0
11
274.73121027052122
21
-264.20843093227995
31
0
0
LINE
5
244
100
AcDbEntity
8
0
100
AcDbLine
10
274.73258073576648
20
-269.79359497602456
30
0
11
274.73121027052122
21
-264.20843093227995
31
0
0
LINE
5
245
100
AcDbEntity
8
0
100
AcDbLine
10
275.26249999999999
20
-109.4062499999999
30
0
11
276.26249999999999
21
-109.4062499999999
31
0
0
LINE
5
246
100
AcDbEntity
8
0
100
AcDbLine
10
276.45909933622238
20
-124.65024361448749
30
0
11
295.50909933622216
21
-124.65024361448749
31
0
0
LINE
5
247
100
AcDbEntity
8
0
100
AcDbLine
10
296.50909933622216
20
-144.7002436144875
30
0
11
296.50909933622216
21
-124.65024361448749
31
0
0
LINE
5
248
100
AcDbEntity
8
0
100
AcDbLine
10
275.45772887097695
20
-148.60204049436805
30
0
11
275.45909933622238
21
-124.65024361448749
31
0
0
LINE
5
249
100
AcDbEntity
8
0
100
AcDbLine
10
506.0590993362224
20
-223.06274361448743
30
0
11
506.0590993362224
21
-146.3002436144875
31
0
0
LINE
5
250
100
AcDbEntity
8
0
100
AcDbLine
10
277.05909933622229
20
-226.66274361448731
30
0
11
313.95909933622221
21
-226.66274361448751
31
0
0
LINE
5
251
100
AcDbEntity
8
0
100
AcDbLine
10
469.55909933622229
20
-226.66274361448751
30
0
11
504.45909933622238
21
-226.66274361448751
31
0
0
LINE
5
252
100
AcDbEntity
8
0
100
AcDbLine
10
313.95909933622221
20
-226.66274361448751
30
0
11
469.55909933622229
21
-226.66274361448751
31
0
0
LINE
5
253
100
AcDbEntity
8
0
100
AcDbLine
10
296.50909933622216
20
-144.7002436144875
30
0
11
503.45909933622238
21
-144.7002436144875
31
0
0
ARC
5
254
100
AcDbEntity
8
0
100
AcDbCircle
10
504.45909933622238
20
-146.3002436144875
30
0
40
1.6000000000000369
210
0
220
0
230
1
100
AcDbArc
50
0
51
90
0
ARC
5
255
100
AcDbEntity
8
0
100
AcDbCircle
10
504.45909933622238
20
-225.06274361448746
30
0
40
1.6000000000000369
210
0
220
0
230
1
100
AcDbArc
50
-90
51
0
0
ARC
5
256
100
AcDbEntity
8
0
100
AcDbCircle
10
277.05909933622229
20
-225.06274361448732
30
0
40
1.6000000000000014
210
0
220
0
230
1
100
AcDbArc
50
180
51
270
0
LINE
5
257
100
AcDbEntity
8
0
100
AcDbLine
10
503.45909933622238
20
-144.7002436144875
30
0
11
504.45909933622238
21
-144.7002436144875
31
0
0
LINE
5
258
100
AcDbEntity
8
0
100
AcDbLine
10
506.0590993362224
20
-224.06274361448743
30
0
11
506.0590993362224
21
-223.06274361448743
31
0
0
LINE
5
259
100
AcDbEntity
8
0
100
AcDbLine
10
506.0590993362224
20
-225.06274361448746
30
0
11
506.0590993362224
21
-224.06274361448743
31
0
0
LINE
5
260
100
AcDbEntity
8
0
100
AcDbLine
10
295.50909933622216
20
-124.65024361448749
30
0
11
296.50909933622216
21
-124.65024361448749
31
0
0
LINE
5
261
100
AcDbEntity
8
0
100
AcDbLine
10
275.45909933622238
20
-124.65024361448749
30
0
11
276.45909933622238
21
-124.65024361448749
31
0
0
LINE
5
262
100
AcDbEntity
8
0
100
AcDbLine
10
275.45772887097695
20
-167.95251536624818
30
0
11
275.45909933622232
21
-225.06274361448732
31
0
0
LINE
5
263
100
AcDbEntity
8
0
100
AcDbLine
10
8.546950739900268
20
-229.89281991246111
30
0
11
246.59695073990008
21
-229.89281991246111
31
0
0
LINE
5
264
100
AcDbEntity
8
0
100
AcDbLine
10
8.9094507399001657
20
-120.3553199124611
30
0
11
246.59695073990008
21
-120.3553199124611
31
0
0
LINE
5
265
100
AcDbEntity
8
0
100
AcDbLine
10
248.1969507399001
20
-218.89281991246108
30
0
11
248.19695073990019
21
-121.95531991246111
31
0
0
LINE
5
266
100
AcDbEntity
8
0
100
AcDbLine
10
14.834450739900234
20
-124.11781991246109
30
0
11
33.884450739900068
21
-124.11781991246109
31
0
0
LINE
5
267
100
AcDbEntity
8
0
100
AcDbLine
10
34.884450739900068
20
-144.16781991246108
30
0
11
34.884450739900068
21
-124.11781991246109
31
0
0
LINE
5
268
100
AcDbEntity
8
0
100
AcDbLine
10
13.833080274654801
20
-148.06961679234172
30
0
11
13.834450739900232
21
-124.11781991246109
31
0
0
LINE
5
269
100
AcDbEntity
8
0
100
AcDbLine
10
244.43445073990034
20
-222.5303199124611
30
0
11
244.43445073990034
21
-145.76781991246108
31
0
0
LINE
5
270
100
AcDbEntity
8
0
100
AcDbLine
10
15.434450739900143
20
-226.13031991246103
30
0
11
52.334450739900014
21
-226.13031991246112
31
0
0
LINE
5
271
100
AcDbEntity
8
0
100
AcDbLine
10
207.93445073990011
20
-226.13031991246112
30
0
11
242.83445073990021
21
-226.13031991246112
31
0
0
LINE
5
272
100
AcDbEntity
8
0
100
AcDbLine
10
52.334450739900014
20
-226.13031991246112
30
0
11
207.93445073990011
21
-226.13031991246112
31
0
0
LINE
5
273
100
AcDbEntity
8
0
100
AcDbLine
10
34.884450739900068
20
-144.16781991246108
30
0
11
241.83445073990018
21
-144.16781991246108
31
0
0
ARC
5
274
100
AcDbEntity
8
0
100
AcDbCircle
10
8.9094507399001657
20
-121.95531991246111
30
0
40
1.6000000000000014
210
0
220
-0
230
1
100
AcDbArc
50
90
51
180
0
ARC
5
275
100
AcDbEntity
8
0
100
AcDbCircle
10
246.59695073990008
20
-121.95531991246111
30
0
40
1.600000000000108
210
0
220
0
230
1
100
AcDbArc
50
0
51
90
0
ARC
5
276
100
AcDbEntity
8
0
100
AcDbCircle
10
242.83445073990021
20
-145.76781991246108
30
0
40
1.6000000000001435
210
0
220
0
230
1
100
AcDbArc
50
0
51
89.999999999998991
0
ARC
5
277
100
AcDbEntity
8
0
100
AcDbCircle
10
7.8344507399000634
20
-124.71781991246111
30
0
40
1.6000000000000092
210
0
220
0
230
1
100
AcDbArc
50
0
51
89.999999999999019
0
ARC
5
278
100
AcDbEntity
8
0
100
AcDbCircle
10
242.83445073990021
20
-224.5303199124611
30
0
40
1.6000000000000014
210
0
220
0
230
1
100
AcDbArc
50
-90
51
0
0
ARC
5
279
100
AcDbEntity
8
0
100
AcDbCircle
10
8.546950739900268
20
-221.89281991246108
30
0
40
7.9999999999999991
210
0
220
0
230
1
100
AcDbArc
50
180
51
270
0
ARC
5
280
100
AcDbEntity
8
0
100
AcDbCircle
10
15.434450739900143
20
-224.53031991246104
30
0
40
1.5999999999999948
210
0
220
0
230
1
100
AcDbArc
50
180
51
270
0
LINE
5
281
100
AcDbEntity
8
0
100
AcDbLine
10
9.4344507399000719
20
-124.71781991246111
30
0
11
9.433080274654829
21
-146.49302079268992
31
0
0
LWPOLYLINE
5
282
100
AcDbEntity
8
0
100
AcDbPolyline
90
6
70
1
43
0.0
10
8.1346639801716663
20
-220.14281991246122
10
4.9592374996286415
20
-220.14281991246122
10
3.3715242593571304
20
-222.89281991246111
10
4.9592374996286415
20
-225.64281991246108
10
8.1346639801716663
20
-225.64281991246108
10
9.7223772204430645
20
-222.89281991246111
0
LWPOLYLINE
5
283
100
AcDbEntity
8
0
100
AcDbPolyline
90
6
70
1
43
0.0
10
43.884450739900075
20
-134.64281991246108
10
45.47216398017153
20
-137.39281991246111
10
48.647590460714682
20
-137.39281991246111
10
50.23530370098608
20
-134.64281991246108
10
48.647590460714682
20
-131.89281991246119
10
45.47216398017153
20
-131.89281991246119
0
LWPOLYLINE
5
284
100
AcDbEntity
8
0
100
AcDbPolyline
90
6
70
1
43
0.0
10
240.60923749962859
20
-123.6053199124612
10
239.02152425935722
20
-126.3553199124611
10
240.60923749962859
20
-129.10531991246108
10
243.78466398017181
20
-129.10531991246108
10
245.3723772204431
20
-126.3553199124611
10
243.78466398017181
20
-123.6053199124612
0
LWPOLYLINE
5
285
100
AcDbEntity
8
0
100
AcDbPolyline
90
6
70
1
43
0.0
10
239.02152425935722
20
-126.3553199124611
10
240.60923749962859
20
-129.10531991246108
10
243.78466398017181
20
-129.10531991246108
10
245.3723772204431
20
-126.3553199124611
10
243.78466398017181
20
-123.6053199124612
10
240.60923749962859
20
-123.6053199124612
0
LWPOLYLINE
5
286
100
AcDbEntity
8
0
100
AcDbPolyline
90
6
70
1
43
0.0
10
252.98466398017158
20
-227.39281991246111
10
254.57237722044295
20
-224.64281991246111
10
252.98466398017158
20
-221.89281991246108
10
249.80923749962841
20
-221.89281991246108
10
248.22152425935712
20
-224.64281991246111
10
249.80923749962841
20
-227.39281991246111
0
LINE
5
287
100
AcDbEntity
8
0
100
AcDbLine
10
256.59695073990008
20
-220.89281991246111
30
0
11
256.59695073990008
21
-228.89281991246108
31
0
0
LINE
5
288
100
AcDbEntity
8
0
100
AcDbLine
10
246.59695073990008
20
-229.89281991246111
30
0
11
255.59695073990011
21
-229.89281991246111
31
0
0
LINE
5
289
100
AcDbEntity
8
0
100
AcDbLine
10
249.19695073990016
20
-219.89281991246111
30
0
11
255.59695073990031
21
-219.89281991246111
31
0
0
ARC
5
290
100
AcDbEntity
8
0
100
AcDbCircle
10
255.59695073990011
20
-228.89281991246108
30
0
40
1.0000000000000142
210
0
220
0
230
1
100
AcDbArc
50
-90
51
0
0
ARC
5
291
100
AcDbEntity
8
0
100
AcDbCircle
10
255.59695073990031
20
-220.89281991246111
30
0
40
0.99999999999976552
210
0
220
0
230
1
100
AcDbArc
50
0
51
90
0
ARC
5
292
100
AcDbEntity
8
0
100
AcDbCircle
10
1.546950739900268
20
-212.89281991246111
30
0
40
1.0000000000000142
210
0
220
-0
230
1
100
AcDbArc
50
90
51
180
0
ARC
5
293
100
AcDbEntity
8
0
100
AcDbCircle
10
249.19695073990016
20
-218.89281991246108
30
0
40
1.0000000000000497
210
0
220
0
230
1
100
AcDbArc
50
180
51
270
0
ARC
5
294
100
AcDbEntity
8
0
100
AcDbCircle
10
6.3094507399001429
20
-210.89281991246111
30
0
40
1.0000000000000142
210
0
220
0
230
1
100
AcDbArc
50
-90
51
0
0
LINE
5
295
100
AcDbEntity
8
0
100
AcDbLine
10
248.19695073990019
20
-121.95531991246111
30
0
11
248.19695073990019
21
-126.3553199124611
31
0
0
LINE
5
296
100
AcDbEntity
8
0
100
AcDbLine
10
1.546950739900268
20
-211.89281991246108
30
0
11
6.3094507399001429
21
-211.89281991246111
31
0
0
LINE
5
297
100
AcDbEntity
8
0
100
AcDbLine
10
7.3094507399001429
20
-175.05993029373298
30
0
11
7.3094507399001429
21
-210.89281991246111
31
0
0
ARC
5
298
100
AcDbEntity
8
0
100
AcDbCircle
10
12.834450739900181
20
-148.1219527485847
30
0
40
1.0000000000000338
210
0
220
0
230
1
100
AcDbArc
50
-121.99999999999913
51
3.0000000000022324
0
ARC
5
299
100
AcDbEntity
8
0
100
AcDbCircle
10
12.834450739900234
20
-167.36775570797889
30
0
40
0.99999999999997891
210
0
220
0
230
1
100
AcDbArc
50
-3.0000000000006275
51
122.00000000000104
0
ARC
5
300
100
AcDbEntity
8
0
100
AcDbCircle
10
8.3067098094091705
20
-170.16460220622292
30
0
40
0.99999999999982059
210
0
220
0
230
1
100
AcDbArc
50
121.9999999999972
51
177.00000000000858
0
ARC
5
301
100
AcDbEntity
8
0
100
AcDbCircle
10
10.431709809409231
20
-146.44068483644708
30
0
40
0.99999999999982203
210
0
220
0
230
1
100
AcDbArc
50
182.99999999999457
51
238.00000000000625
0
LINE
5
302
100
AcDbEntity
8
0
100
AcDbLine
10
7.776790545176099
20
-169.31655411006662
30
0
11
12.304531475667012
21
-166.51970761182247
31
0
0
LINE
5
303
100
AcDbEntity
8
0
100
AcDbLine
10
7.309450739900166
20
-121.95531991246111
30
0
11
7.3094507399001429
21
-122.59281991246129
31
0
0
ARC
5
304
100
AcDbEntity
8
0
100
AcDbCircle
10
7.834450739899836
20
-122.59281991246129
30
0
40
0.52499999999985025
210
0
220
0
230
1
100
AcDbArc
50
173.88449643369759
51
270.0000000000278
0
LINE
5
305
100
AcDbEntity
8
0
100
AcDbLine
10
0.54695073990026799
20
-212.89281991246111
30
0
11
0.54695073990026932
21
-221.89281991246108
31
0
0
LINE
5
306
100
AcDbEntity
8
0
100
AcDbLine
10
9.9017905451762314
20
-147.28873293260338
30
0
11
12.304531475666963
21
-148.97000084474118
31
0
0
LINE
5
307
100
AcDbEntity
8
0
100
AcDbLine
10
7.3094507399001429
20
-175.05993029373298
30
0
11
7.3080802746547597
21
-170.11226624998014
31
0
0
LINE
5
308
100
AcDbEntity
8
0
100
AcDbLine
10
241.83445073990018
20
-144.16781991246108
30
0
11
242.83445073990023
21
-144.16781991246108
31
0
0
LINE
5
309
100
AcDbEntity
8
0
100
AcDbLine
10
244.43445073990034
20
-223.53031991246112
30
0
11
244.43445073990034
21
-222.5303199124611
31
0
0
LINE
5
310
100
AcDbEntity
8
0
100
AcDbLine
10
244.43445073990023
20
-224.5303199124611
30
0
11
244.43445073990034
21
-223.53031991246112
31
0
0
LINE
5
311
100
AcDbEntity
8
0
100
AcDbLine
10
33.884450739900068
20
-124.11781991246109
30
0
11
34.884450739900068
21
-124.11781991246109
31
0
0
LINE
5
312
100
AcDbEntity
8
0
100
AcDbLine
10
13.834450739900232
20
-124.11781991246109
30
0
11
14.834450739900234
21
-124.11781991246109
31
0
0
LINE
5
313
100
AcDbEntity
8
0
100
AcDbLine
10
13.833080274654785
20
-167.42009166422184
30
0
11
13.834450739900149
21
-224.53031991246104
31
0
0
LWPOLYLINE
5
314
100
AcDbEntity
8
0
100
AcDbPolyline
90
8
70
1
43
0.0
10
219.62500000000003
20
-104.76875
10
238.625
20
-104.76875
42
0.41421356237309503
10
239.62500000000003
20
-103.76875000000005
10
239.62500000000003
20
-80.768750000000011
42
0.41421356237309503
10
238.625
20
-79.76875000000004
10
215.625
20
-79.76875000000004
42
0.41421356237309503
10
214.62500000000003
20
-80.768750000000011
10
214.62500000000003
20
-99.768749999999997
42
0.41421356237309503
0
LWPOLYLINE
5
315
100
AcDbEntity
8
0
100
AcDbPolyline
90
12
70
1
43
0.0
10
209.62500000000003
20
-79.76875000000004
10
209.62500000000003
20
-99.768749999999997
42
-0.41421356237309503
10
208.625
20
-100.76875000000001
42
-0.41421356237309503
10
203.625
20
-95.768750000000011
10
203.625
20
-88.768750000000011
10
203.625
20
-69.76875000000004
42
-0.41421356237309503
10
204.62500000000003
20
-68.768750000000011
10
229.62500000000003
20
-68.768750000000054
42
-0.41421356237309503
10
230.625
20
-69.76875000000004
10
230.62500000000003
20
-73.768750000000011
42
-0.41421356237309503
10
229.62500000000003
20
-74.76875000000004
10
209.62500000000003
20
-74.76875000000004
0
ENDSEC
0
SECTION
2
OBJECTS
0
DICTIONARY
5
C
100
AcDbDictionary
3
ACAD_GROUP
350
D
3
ACAD_MLINESTYLE
350
17
0
DICTIONARY
5
D
100
AcDbDictionary
0
DICTIONARY
5
1A
330
C
100
AcDbDictionary
0
DICTIONARY
5
17
100
AcDbDictionary
0
ENDSEC
0
EOF
